<?xml version="1.0" encoding="UTF-8" standalone="no"?>
<!DOCTYPE svg PUBLIC "-//W3C//DTD SVG 1.1//EN" "http://www.w3.org/Graphics/SVG/1.1/DTD/svg11.dtd">
<svg width="100%" height="100%" viewBox="0 0 341 37" version="1.1" xmlns="http://www.w3.org/2000/svg" xmlns:xlink="http://www.w3.org/1999/xlink" xml:space="preserve" xmlns:serif="http://www.serif.com/" style="fill-rule:evenodd;clip-rule:evenodd;stroke-linejoin:round;stroke-miterlimit:1.41421;">
    <g transform="matrix(1,0,0,1,1337,-20165)">
        <g id="kickstarter-logo-color" transform="matrix(0.355012,0,0,0.355012,-1166.52,20183.4)">
            <g transform="matrix(1,0,0,1,-480,-51)">
                <g>
                    <clipPath id="_clip1">
                        <path d="M873.182,26.547C873.182,10.185 881.763,1.67 897.579,1.67L926.686,1.67C944.352,1.67 958.149,15.027 958.149,32.223C958.149,41.573 954.279,49.253 947.885,54.094L956.635,67.952C958.99,71.625 960,75.632 960,79.806C960,92.16 950.241,101.844 937.959,101.844C930.387,101.844 922.984,98.004 918.778,90.992L916.423,86.818C913.562,95.667 905.655,101.844 895.559,101.844C883.277,101.844 873.182,91.493 873.182,78.971L873.182,26.547ZM866.504,82.649C866.504,93.424 857.877,102.009 847.426,101.842L812.587,101.842C796.661,101.842 788.034,93.424 788.034,76.925L788.034,26.587C788.034,10.256 796.661,1.67 812.587,1.67L847.426,1.67C857.877,1.67 866.504,10.256 866.504,21.031C866.504,30.796 860.532,37.866 851.905,39.55C855.886,42.075 858.043,46.284 858.043,51.84C858.043,57.396 855.721,61.605 851.905,64.13C860.366,65.813 866.504,73.053 866.504,82.649ZM760.987,79.305C760.987,91.66 750.636,101.844 736.779,101.844C723.756,101.844 713.238,91.66 713.238,79.305L713.238,44.745C702.052,44.077 692.869,34.894 692.869,23.207C692.869,11.02 702.553,1.67 714.407,1.67L759.819,1.67C771.673,1.67 781.356,11.187 781.356,23.207C781.356,34.894 772.173,44.244 760.987,44.745L760.987,79.305ZM604.382,26.547C604.382,10.185 613.131,1.67 628.779,1.67L657.886,1.67C675.552,1.67 689.349,15.027 689.349,32.223C689.349,41.573 685.479,49.253 679.085,54.094L687.834,67.952C690.19,71.625 691.2,75.632 691.2,79.806C691.2,92.16 681.441,101.844 669.159,101.844C661.587,101.844 654.184,98.004 649.978,90.992L647.623,86.818C644.762,95.667 636.855,101.844 626.759,101.844C614.477,101.844 604.382,91.493 604.382,78.971L604.382,26.547ZM549.152,82.76C543.456,94.535 535.415,100.174 525.698,100.174C508.108,100.174 495.376,84.087 503.25,66.009L523.856,18.244C529.049,6.469 536.588,0 549.32,0C562.22,0 569.758,6.469 574.784,18.244L595.39,66.009C603.097,84.087 590.532,100.174 572.774,100.174C562.89,100.174 554.848,94.535 549.152,82.76ZM490.479,79.305C490.479,91.66 479.941,101.844 466.392,101.844C453.345,101.844 442.807,91.66 442.807,79.305L442.807,44.745C431.599,44.077 422.4,34.894 422.4,23.207C422.4,11.02 432.101,1.67 443.978,1.67L489.308,1.67C501.185,1.67 510.886,11.187 510.886,23.207C510.886,34.894 501.686,44.244 490.479,44.745L490.479,79.305ZM422.4,69.348C422.4,89.281 407.007,101.844 381.075,101.844C354.641,101.844 342.26,92.799 342.26,78.058C342.26,67.84 350.124,61.308 361.333,61.308L361.5,61.308L355.477,55.78C347.949,48.912 342.762,42.044 342.762,31.994C342.762,12.396 357.151,0 381.744,0C406.84,0 418.719,8.878 418.719,23.786C418.719,32.664 412.696,38.694 403.661,40.034L409.852,45.562C417.38,52.262 422.4,59.298 422.4,69.348ZM337.252,77.746C337.252,90.039 326.972,100.339 314.333,100.172C307.256,100.172 300.009,96.85 295.628,90.537L290.91,83.892C288.719,93.528 280.293,100.172 269.508,100.172C257.038,100.172 247.095,90.205 247.095,77.912L247.095,22.261C247.095,9.968 256.869,0 269.508,0C280.462,0 289.056,7.144 291.078,16.945L296.302,9.636C300.684,3.655 307.761,0.167 314.839,0.167C326.972,0.167 337.252,9.636 337.252,21.929C337.252,26.58 335.904,31.232 333.039,35.052L322.254,49.837L333.039,64.622C335.904,68.609 337.252,73.094 337.252,77.746ZM238.747,72.643C238.747,88.731 225.303,100.174 203.726,100.174C174.845,100.174 153.6,78.78 153.6,50.087C153.6,21.395 174.845,0 203.726,0C225.303,0 238.747,11.444 238.747,27.532C238.747,38.312 233.436,45.609 222.813,50.087C233.436,54.565 238.747,62.029 238.747,72.643ZM121.126,0C134.622,0 145.418,10.983 145.25,23.962L145.25,76.213C145.25,89.192 134.622,100.174 120.958,100.174C107.631,100.174 96.834,89.358 96.834,76.213L96.834,23.962C96.834,10.983 107.631,0 121.126,0ZM90.156,77.746C90.156,90.039 79.896,100.339 67.112,100.172C60.048,100.172 52.815,96.85 48.442,90.537L43.732,83.892C41.546,93.528 33.135,100.172 22.37,100.172C9.923,100.172 0,90.205 0,77.912L0,22.261C0,9.968 9.755,0 22.37,0C33.304,0 41.882,7.144 43.9,16.945L49.283,9.636C53.656,3.655 60.721,0.167 67.785,0.167C79.896,0.167 90.156,9.636 90.156,21.929C90.156,26.58 88.81,31.232 85.951,35.052L75.186,49.837L85.951,64.622C88.81,68.609 90.156,73.094 90.156,77.746Z"/>
                    </clipPath>
                    <g clip-path="url(#_clip1)">
                        <rect x="-15" y="-15" width="990" height="131.843" style="fill:rgb(0,73,83);fill-rule:nonzero;"/>
                    </g>
                </g>
            </g>
        </g>
    </g>
</svg>
