<?xml version="1.0" encoding="UTF-8" standalone="no"?>
<!DOCTYPE svg PUBLIC "-//W3C//DTD SVG 1.1//EN" "http://www.w3.org/Graphics/SVG/1.1/DTD/svg11.dtd">
<svg width="100%" height="100%" viewBox="0 0 121 121" version="1.1" xmlns="http://www.w3.org/2000/svg" xmlns:xlink="http://www.w3.org/1999/xlink" xml:space="preserve" xmlns:serif="http://www.serif.com/" style="fill-rule:evenodd;clip-rule:evenodd;stroke-linejoin:round;stroke-miterlimit:1.41421;">
    <g transform="matrix(1,0,0,1,501,-14993)">
        <g id="leather-svgrepo-com" transform="matrix(0.333333,0,0,0.333333,-440.743,15053.3)">
            <g transform="matrix(1,0,0,1,-180,-180)">
                <path id="XMLID_1088_" d="M251,40.5L251,0L111,0L111,40.5C111,55.664 98.664,68 83.5,68L23,68L23,123.552L33.072,132.883C46.342,145.177 53.65,161.91 53.65,180C53.65,198.09 46.342,214.823 33.072,227.117L23,236.448L23,292L83.5,292C98.664,292 111,304.336 111,319.5L111,360L251,360L251,319.5C251,304.336 263.337,292 278.5,292L337,292L337,236.448L326.928,227.117C313.658,214.823 306.35,198.09 306.35,180C306.35,161.91 313.659,145.177 326.927,132.883L337,123.552L337,68L278.5,68C263.337,68 251,55.664 251,40.5ZM307,110.448L306.539,110.875C287.353,128.65 276.35,153.845 276.35,180C276.35,206.155 287.354,231.349 306.539,249.125L307,249.552L307,262L278.5,262C246.794,262 221,287.794 221,319.5L221,330L141,330L141,319.5C141,287.794 115.206,262 83.5,262L53,262L53,249.552L53.461,249.125C72.646,231.349 83.65,206.154 83.65,180C83.65,153.846 72.646,128.651 53.46,110.875L53,110.448L53,98L83.5,98C115.206,98 141,72.206 141,40.5L141,30L221,30L221,40.5C221,72.206 246.794,98 278.5,98L307,98L307,110.448Z" style="fill:rgb(26,26,26);fill-rule:nonzero;"/>
            </g>
        </g>
    </g>
</svg>
