<?xml version="1.0" encoding="UTF-8" standalone="no"?>
<!DOCTYPE svg PUBLIC "-//W3C//DTD SVG 1.1//EN" "http://www.w3.org/Graphics/SVG/1.1/DTD/svg11.dtd">
<svg width="100%" height="100%" viewBox="0 0 330 96" version="1.1" xmlns="http://www.w3.org/2000/svg" xmlns:xlink="http://www.w3.org/1999/xlink" xml:space="preserve" xmlns:serif="http://www.serif.com/" style="fill-rule:evenodd;clip-rule:evenodd;stroke-linejoin:round;stroke-miterlimit:1.41421;">
    <g transform="matrix(1,0,0,1,1324,-2541)">
        <path id="Wallor" d="M-1289.31,2541.49L-1289.31,2541.49C-1289.31,2541.49 -1289.31,2541.49 -1289.31,2541.49L-1289.31,2541.49C-1289.31,2541.49 -1289.31,2541.49 -1289.31,2541.49L-1289.3,2541.49L-1289.3,2541.49L-1289.19,2541.49L-1289.07,2541.49L-1289.07,2541.49C-1270.07,2541.62 -1254.69,2557.22 -1254.69,2576.45C-1254.69,2603.99 -1286.06,2633.5 -1289.07,2636.27L-1289.07,2636.48L-1289.19,2636.38L-1289.3,2636.48L-1289.3,2636.49C-1289.3,2636.49 -1289.31,2636.49 -1289.31,2636.49C-1289.31,2636.49 -1289.31,2636.49 -1289.31,2636.49L-1289.31,2636.48C-1289.31,2636.48 -1289.31,2636.48 -1289.31,2636.48L-1289.31,2636.26C-1292.39,2633.43 -1323.69,2603.96 -1323.69,2576.45C-1323.69,2557.23 -1308.32,2541.63 -1289.31,2541.49ZM-1045.6,2604.54C-1043.83,2603.69 -1042.37,2602.51 -1041.23,2601.01C-1040.09,2599.51 -1039.24,2597.74 -1038.68,2595.7C-1038.13,2593.65 -1037.85,2591.41 -1037.85,2588.99C-1037.85,2586.57 -1038.13,2584.32 -1038.68,2582.24C-1039.24,2580.16 -1040.09,2578.37 -1041.23,2576.85C-1042.37,2575.34 -1043.83,2574.16 -1045.6,2573.31C-1047.38,2572.46 -1049.48,2572.03 -1051.92,2572.03C-1054.35,2572.03 -1056.45,2572.46 -1058.23,2573.31C-1060,2574.16 -1061.46,2575.34 -1062.6,2576.85C-1063.75,2578.37 -1064.6,2580.16 -1065.15,2582.24C-1065.71,2584.32 -1065.99,2586.57 -1065.99,2588.99C-1065.99,2591.41 -1065.71,2593.65 -1065.15,2595.7C-1064.6,2597.74 -1063.75,2599.51 -1062.6,2601.01C-1061.46,2602.51 -1060,2603.69 -1058.23,2604.54C-1056.45,2605.39 -1054.35,2605.81 -1051.92,2605.81C-1049.48,2605.81 -1047.38,2605.39 -1045.6,2604.54ZM-1289.3,2598.25C-1290.01,2598.27 -1290.7,2598.44 -1291.27,2598.77C-1291.99,2599.37 -1292.85,2599.89 -1293.85,2600.3C-1294.75,2600.86 -1295.24,2601.91 -1294.42,2602.49C-1293.33,2603.21 -1292.43,2603.78 -1292.32,2603.85C-1290.7,2604.81 -1289.55,2605.39 -1289.19,2605.56C-1288.83,2605.39 -1287.67,2604.81 -1286.06,2603.85C-1285.95,2603.79 -1285.14,2603.27 -1284.13,2602.6L-1284.13,2602.59C-1283.28,2602.03 -1283.68,2600.91 -1284.57,2600.32C-1285.57,2599.92 -1286.43,2599.41 -1287.16,2598.83C-1287.8,2598.46 -1288.55,2598.27 -1289.3,2598.25ZM-1227.91,2605.27C-1226.83,2605.45 -1225.82,2605.54 -1224.89,2605.54C-1224.23,2605.54 -1223.62,2605.51 -1223.06,2605.45C-1222.51,2605.39 -1221.87,2605.33 -1221.15,2605.27L-1215.56,2583.49L-1210.37,2605.27C-1209.02,2605.45 -1207.77,2605.54 -1206.63,2605.54C-1205.45,2605.54 -1204.33,2605.45 -1203.25,2605.27L-1195.44,2572.58C-1195.99,2572.52 -1196.54,2572.46 -1197.11,2572.4C-1197.68,2572.34 -1198.27,2572.31 -1198.87,2572.31C-1199.86,2572.31 -1200.83,2572.4 -1201.76,2572.58L-1206.4,2597.81L-1212.22,2572.58C-1213.27,2572.4 -1214.25,2572.31 -1215.15,2572.31C-1215.69,2572.31 -1216.22,2572.33 -1216.73,2572.37C-1217.24,2572.42 -1217.8,2572.49 -1218.4,2572.58L-1223.99,2597.17L-1228.63,2572.58C-1229.17,2572.46 -1229.72,2572.38 -1230.28,2572.35C-1230.83,2572.32 -1231.38,2572.31 -1231.92,2572.31C-1233.31,2572.31 -1234.54,2572.4 -1235.62,2572.58L-1227.91,2605.27ZM-1173.39,2598.72L-1175.24,2605.27C-1176.33,2605.45 -1177.36,2605.54 -1178.35,2605.54C-1179.47,2605.54 -1180.56,2605.45 -1181.65,2605.27L-1171.41,2572.58C-1170.78,2572.49 -1170.18,2572.42 -1169.61,2572.37C-1169.04,2572.33 -1168.4,2572.31 -1167.71,2572.31C-1167.11,2572.31 -1166.53,2572.33 -1165.95,2572.37C-1165.38,2572.42 -1164.75,2572.49 -1164.06,2572.58L-1153.91,2605.27C-1155.15,2605.45 -1156.35,2605.54 -1157.52,2605.54C-1158.66,2605.54 -1159.78,2605.45 -1160.86,2605.27L-1162.66,2598.72L-1173.39,2598.72ZM-1018.32,2605.27C-1017.72,2605.36 -1017.13,2605.42 -1016.56,2605.45C-1015.99,2605.48 -1015.45,2605.49 -1014.94,2605.49C-1014.43,2605.49 -1013.9,2605.47 -1013.36,2605.43C-1012.82,2605.38 -1012.28,2605.33 -1011.74,2605.27L-1011.74,2577.67C-1011.2,2577.58 -1010.6,2577.53 -1009.94,2577.53C-1008.22,2577.53 -1006.82,2577.98 -1005.74,2578.88C-1004.66,2579.77 -1004.12,2581.17 -1004.12,2583.08C-1004.12,2584.05 -1004.31,2584.89 -1004.71,2585.6C-1005.1,2586.32 -1005.57,2586.92 -1006.13,2587.42C-1006.68,2587.92 -1007.26,2588.34 -1007.86,2588.67C-1008.46,2589.01 -1008.97,2589.28 -1009.39,2589.49L-1010.48,2590.04L-1002,2605.22C-1000.89,2605.4 -999.76,2605.49 -998.617,2605.49C-997.926,2605.49 -997.25,2605.46 -996.588,2605.4C-995.927,2605.34 -995.296,2605.28 -994.694,2605.22L-1002.59,2591.4L-1001.82,2590.9C-1001.34,2590.6 -1000.83,2590.2 -1000.29,2589.7C-999.745,2589.2 -999.242,2588.6 -998.775,2587.9C-998.309,2587.2 -997.926,2586.39 -997.625,2585.47C-997.325,2584.54 -997.174,2583.47 -997.174,2582.26C-997.174,2580.23 -997.573,2578.56 -998.369,2577.24C-999.166,2575.92 -1000.21,2574.87 -1001.5,2574.1C-1002.8,2573.33 -1004.25,2572.79 -1005.86,2572.49C-1007.46,2572.18 -1009.09,2572.03 -1010.75,2572.03C-1012.16,2572.03 -1013.45,2572.09 -1014.6,2572.19C-1015.76,2572.3 -1017,2572.43 -1018.32,2572.58L-1018.32,2605.27ZM-1118.2,2605.27L-1135.92,2605.27L-1135.92,2572.58C-1134.81,2572.4 -1133.74,2572.31 -1132.72,2572.31C-1131.67,2572.31 -1130.57,2572.4 -1129.43,2572.58L-1129.43,2599.54L-1118.2,2599.54C-1118.11,2600.05 -1118.05,2600.55 -1118.02,2601.01C-1117.99,2601.49 -1117.98,2601.93 -1117.98,2602.36C-1117.98,2602.84 -1117.99,2603.32 -1118.02,2603.79C-1118.05,2604.26 -1118.11,2604.75 -1118.2,2605.27ZM-1082.13,2605.27L-1099.85,2605.27L-1099.85,2572.58C-1098.74,2572.4 -1097.67,2572.31 -1096.65,2572.31C-1095.6,2572.31 -1094.5,2572.4 -1093.36,2572.58L-1093.36,2599.54L-1082.13,2599.54C-1082.04,2600.05 -1081.98,2600.55 -1081.95,2601.01C-1081.92,2601.49 -1081.9,2601.93 -1081.9,2602.36C-1081.9,2602.84 -1081.92,2603.32 -1081.95,2603.79C-1081.98,2604.26 -1082.04,2604.75 -1082.13,2605.27ZM-1058.95,2588.99C-1058.95,2581.47 -1056.59,2577.72 -1051.87,2577.72C-1049.5,2577.72 -1047.75,2578.66 -1046.62,2580.53C-1045.49,2582.41 -1044.93,2585.23 -1044.93,2588.99C-1044.93,2596.51 -1047.26,2600.26 -1051.92,2600.26C-1056.61,2600.26 -1058.95,2596.51 -1058.95,2588.99L-1058.95,2588.99ZM-1289.19,2586.89C-1288.13,2586.88 -1287.07,2586.73 -1286.03,2586.45L-1282.38,2585.44C-1281.79,2585.28 -1281.18,2585.63 -1281.03,2586.22C-1280.81,2587.07 -1281.12,2587.97 -1281.83,2588.5L-1287.78,2593C-1288.24,2593.54 -1288.84,2593.83 -1288.81,2594.59C-1288.32,2596.88 -1286.71,2598.56 -1284.02,2599.6C-1283.81,2599.67 -1283.61,2599.74 -1283.41,2599.81C-1282.53,2600.03 -1280.66,2600.21 -1278.88,2598.63C-1278.61,2598.39 -1277.67,2597.69 -1277.51,2597.54C-1275.35,2595.57 -1273.2,2593.25 -1271.38,2590.59C-1270.19,2588.86 -1269.14,2586.99 -1268.31,2584.98C-1267.08,2582.03 -1266.32,2578.78 -1266.29,2575.22C-1266.29,2575 -1266.39,2572.39 -1266.55,2571.26C-1267.17,2566.77 -1268.71,2563.91 -1270.72,2562.18C-1271.3,2561.68 -1271.93,2561.26 -1272.58,2560.94C-1273.33,2560.56 -1274.12,2560.3 -1274.93,2560.12C-1276.57,2559.77 -1278.3,2559.78 -1279.95,2560.01L-1279.96,2560.01C-1280.5,2560.08 -1281.05,2560.17 -1281.57,2560.28C-1285.19,2561.05 -1288.23,2562.59 -1289.07,2563.04L-1289.07,2563.17C-1289.08,2563.16 -1289.12,2563.14 -1289.19,2563.1C-1289.26,2563.14 -1289.3,2563.16 -1289.3,2563.17L-1289.3,2563.17C-1289.3,2563.17 -1289.31,2563.17 -1289.31,2563.17C-1289.31,2563.17 -1289.31,2563.17 -1289.31,2563.17L-1289.31,2563.17C-1289.31,2563.17 -1289.31,2563.17 -1289.31,2563.17L-1289.31,2563.03C-1290.17,2562.58 -1293.21,2561.05 -1296.81,2560.28C-1297.33,2560.17 -1297.87,2560.08 -1298.42,2560.01L-1298.43,2560.01C-1300.09,2559.78 -1301.81,2559.77 -1303.45,2560.12C-1304.26,2560.3 -1305.05,2560.56 -1305.8,2560.94C-1306.46,2561.26 -1307.08,2561.68 -1307.66,2562.18C-1309.67,2563.91 -1311.21,2566.77 -1311.84,2571.26C-1312,2572.39 -1312.1,2575 -1312.09,2575.22C-1312.06,2578.78 -1311.3,2582.03 -1310.07,2584.98C-1309.25,2586.99 -1308.19,2588.86 -1307.01,2590.59C-1305.18,2593.25 -1303.03,2595.57 -1300.87,2597.54C-1300.66,2597.73 -1299.43,2598.77 -1299.35,2598.84C-1297.56,2600.26 -1295.75,2600 -1294.96,2599.78C-1294.79,2599.72 -1294.62,2599.66 -1294.44,2599.6C-1291.81,2598.57 -1290.23,2596.91 -1289.73,2594.64C-1289.67,2593.83 -1290.31,2593.54 -1290.78,2592.98L-1290.77,2592.98L-1296.58,2588.51C-1297.27,2587.97 -1297.58,2587.08 -1297.36,2586.23L-1297.36,2586.22C-1297.21,2585.63 -1296.6,2585.28 -1296,2585.44L-1292.35,2586.45C-1291.32,2586.73 -1290.26,2586.88 -1289.19,2586.89ZM-1164.19,2593.22L-1167.94,2579.49L-1171.86,2593.22L-1164.19,2593.22ZM-1302.56,2571.3C-1303.05,2571.34 -1303.38,2571.8 -1303.28,2572.27C-1303.22,2572.55 -1303.15,2572.82 -1303.08,2573.09C-1302.99,2573.42 -1302.71,2573.64 -1302.39,2573.76C-1293.27,2577.18 -1294.59,2580.38 -1294.59,2580.38C-1294.59,2580.38 -1292.73,2578.24 -1292.16,2576.35C-1292.16,2576.35 -1292.17,2576.35 -1292.17,2576.35C-1291.91,2575.52 -1291.75,2574.56 -1291.64,2573.72C-1291.58,2573.14 -1291.93,2572.6 -1292.49,2572.42C-1295.68,2571.41 -1299.09,2571 -1302.56,2571.3ZM-1286.21,2576.35C-1286.22,2576.35 -1286.22,2576.35 -1286.22,2576.35C-1285.66,2578.24 -1283.79,2580.38 -1283.79,2580.38C-1283.79,2580.38 -1285.12,2577.18 -1276,2573.76C-1275.68,2573.64 -1275.4,2573.42 -1275.31,2573.09C-1275.24,2572.82 -1275.17,2572.55 -1275.11,2572.27C-1275,2571.8 -1275.34,2571.34 -1275.83,2571.3C-1279.29,2571 -1282.71,2571.41 -1285.9,2572.42C-1286.46,2572.6 -1286.81,2573.14 -1286.74,2573.72C-1286.64,2574.56 -1286.47,2575.52 -1286.21,2576.35Z" style="fill:rgb(27,47,57);"/>
        <clipPath id="_clip1">
            <path id="Wallor1" serif:id="Wallor" d="M-1289.31,2541.49L-1289.31,2541.49C-1289.31,2541.49 -1289.31,2541.49 -1289.31,2541.49L-1289.31,2541.49C-1289.31,2541.49 -1289.31,2541.49 -1289.31,2541.49L-1289.3,2541.49L-1289.3,2541.49L-1289.19,2541.49L-1289.07,2541.49L-1289.07,2541.49C-1270.07,2541.62 -1254.69,2557.22 -1254.69,2576.45C-1254.69,2603.99 -1286.06,2633.5 -1289.07,2636.27L-1289.07,2636.48L-1289.19,2636.38L-1289.3,2636.48L-1289.3,2636.49C-1289.3,2636.49 -1289.31,2636.49 -1289.31,2636.49C-1289.31,2636.49 -1289.31,2636.49 -1289.31,2636.49L-1289.31,2636.48C-1289.31,2636.48 -1289.31,2636.48 -1289.31,2636.48L-1289.31,2636.26C-1292.39,2633.43 -1323.69,2603.96 -1323.69,2576.45C-1323.69,2557.23 -1308.32,2541.63 -1289.31,2541.49ZM-1045.6,2604.54C-1043.83,2603.69 -1042.37,2602.51 -1041.23,2601.01C-1040.09,2599.51 -1039.24,2597.74 -1038.68,2595.7C-1038.13,2593.65 -1037.85,2591.41 -1037.85,2588.99C-1037.85,2586.57 -1038.13,2584.32 -1038.68,2582.24C-1039.24,2580.16 -1040.09,2578.37 -1041.23,2576.85C-1042.37,2575.34 -1043.83,2574.16 -1045.6,2573.31C-1047.38,2572.46 -1049.48,2572.03 -1051.92,2572.03C-1054.35,2572.03 -1056.45,2572.46 -1058.23,2573.31C-1060,2574.16 -1061.46,2575.34 -1062.6,2576.85C-1063.75,2578.37 -1064.6,2580.16 -1065.15,2582.24C-1065.71,2584.32 -1065.99,2586.57 -1065.99,2588.99C-1065.99,2591.41 -1065.71,2593.65 -1065.15,2595.7C-1064.6,2597.74 -1063.75,2599.51 -1062.6,2601.01C-1061.46,2602.51 -1060,2603.69 -1058.23,2604.54C-1056.45,2605.39 -1054.35,2605.81 -1051.92,2605.81C-1049.48,2605.81 -1047.38,2605.39 -1045.6,2604.54ZM-1289.3,2598.25C-1290.01,2598.27 -1290.7,2598.44 -1291.27,2598.77C-1291.99,2599.37 -1292.85,2599.89 -1293.85,2600.3C-1294.75,2600.86 -1295.24,2601.91 -1294.42,2602.49C-1293.33,2603.21 -1292.43,2603.78 -1292.32,2603.85C-1290.7,2604.81 -1289.55,2605.39 -1289.19,2605.56C-1288.83,2605.39 -1287.67,2604.81 -1286.06,2603.85C-1285.95,2603.79 -1285.14,2603.27 -1284.13,2602.6L-1284.13,2602.59C-1283.28,2602.03 -1283.68,2600.91 -1284.57,2600.32C-1285.57,2599.92 -1286.43,2599.41 -1287.16,2598.83C-1287.8,2598.46 -1288.55,2598.27 -1289.3,2598.25ZM-1227.91,2605.27C-1226.83,2605.45 -1225.82,2605.54 -1224.89,2605.54C-1224.23,2605.54 -1223.62,2605.51 -1223.06,2605.45C-1222.51,2605.39 -1221.87,2605.33 -1221.15,2605.27L-1215.56,2583.49L-1210.37,2605.27C-1209.02,2605.45 -1207.77,2605.54 -1206.63,2605.54C-1205.45,2605.54 -1204.33,2605.45 -1203.25,2605.27L-1195.44,2572.58C-1195.99,2572.52 -1196.54,2572.46 -1197.11,2572.4C-1197.68,2572.34 -1198.27,2572.31 -1198.87,2572.31C-1199.86,2572.31 -1200.83,2572.4 -1201.76,2572.58L-1206.4,2597.81L-1212.22,2572.58C-1213.27,2572.4 -1214.25,2572.31 -1215.15,2572.31C-1215.69,2572.31 -1216.22,2572.33 -1216.73,2572.37C-1217.24,2572.42 -1217.8,2572.49 -1218.4,2572.58L-1223.99,2597.17L-1228.63,2572.58C-1229.17,2572.46 -1229.72,2572.38 -1230.28,2572.35C-1230.83,2572.32 -1231.38,2572.31 -1231.92,2572.31C-1233.31,2572.31 -1234.54,2572.4 -1235.62,2572.58L-1227.91,2605.27ZM-1173.39,2598.72L-1175.24,2605.27C-1176.33,2605.45 -1177.36,2605.54 -1178.35,2605.54C-1179.47,2605.54 -1180.56,2605.45 -1181.65,2605.27L-1171.41,2572.58C-1170.78,2572.49 -1170.18,2572.42 -1169.61,2572.37C-1169.04,2572.33 -1168.4,2572.31 -1167.71,2572.31C-1167.11,2572.31 -1166.53,2572.33 -1165.95,2572.37C-1165.38,2572.42 -1164.75,2572.49 -1164.06,2572.58L-1153.91,2605.27C-1155.15,2605.45 -1156.35,2605.54 -1157.52,2605.54C-1158.66,2605.54 -1159.78,2605.45 -1160.86,2605.27L-1162.66,2598.72L-1173.39,2598.72ZM-1018.32,2605.27C-1017.72,2605.36 -1017.13,2605.42 -1016.56,2605.45C-1015.99,2605.48 -1015.45,2605.49 -1014.94,2605.49C-1014.43,2605.49 -1013.9,2605.47 -1013.36,2605.43C-1012.82,2605.38 -1012.28,2605.33 -1011.74,2605.27L-1011.74,2577.67C-1011.2,2577.58 -1010.6,2577.53 -1009.94,2577.53C-1008.22,2577.53 -1006.82,2577.98 -1005.74,2578.88C-1004.66,2579.77 -1004.12,2581.17 -1004.12,2583.08C-1004.12,2584.05 -1004.31,2584.89 -1004.71,2585.6C-1005.1,2586.32 -1005.57,2586.92 -1006.13,2587.42C-1006.68,2587.92 -1007.26,2588.34 -1007.86,2588.67C-1008.46,2589.01 -1008.97,2589.28 -1009.39,2589.49L-1010.48,2590.04L-1002,2605.22C-1000.89,2605.4 -999.76,2605.49 -998.617,2605.49C-997.926,2605.49 -997.25,2605.46 -996.588,2605.4C-995.927,2605.34 -995.296,2605.28 -994.694,2605.22L-1002.59,2591.4L-1001.82,2590.9C-1001.34,2590.6 -1000.83,2590.2 -1000.29,2589.7C-999.745,2589.2 -999.242,2588.6 -998.775,2587.9C-998.309,2587.2 -997.926,2586.39 -997.625,2585.47C-997.325,2584.54 -997.174,2583.47 -997.174,2582.26C-997.174,2580.23 -997.573,2578.56 -998.369,2577.24C-999.166,2575.92 -1000.21,2574.87 -1001.5,2574.1C-1002.8,2573.33 -1004.25,2572.79 -1005.86,2572.49C-1007.46,2572.18 -1009.09,2572.03 -1010.75,2572.03C-1012.16,2572.03 -1013.45,2572.09 -1014.6,2572.19C-1015.76,2572.3 -1017,2572.43 -1018.32,2572.58L-1018.32,2605.27ZM-1118.2,2605.27L-1135.92,2605.27L-1135.92,2572.58C-1134.81,2572.4 -1133.74,2572.31 -1132.72,2572.31C-1131.67,2572.31 -1130.57,2572.4 -1129.43,2572.58L-1129.43,2599.54L-1118.2,2599.54C-1118.11,2600.05 -1118.05,2600.55 -1118.02,2601.01C-1117.99,2601.49 -1117.98,2601.93 -1117.98,2602.36C-1117.98,2602.84 -1117.99,2603.32 -1118.02,2603.79C-1118.05,2604.26 -1118.11,2604.75 -1118.2,2605.27ZM-1082.13,2605.27L-1099.85,2605.27L-1099.85,2572.58C-1098.74,2572.4 -1097.67,2572.31 -1096.65,2572.31C-1095.6,2572.31 -1094.5,2572.4 -1093.36,2572.58L-1093.36,2599.54L-1082.13,2599.54C-1082.04,2600.05 -1081.98,2600.55 -1081.95,2601.01C-1081.92,2601.49 -1081.9,2601.93 -1081.9,2602.36C-1081.9,2602.84 -1081.92,2603.32 -1081.95,2603.79C-1081.98,2604.26 -1082.04,2604.75 -1082.13,2605.27ZM-1058.95,2588.99C-1058.95,2581.47 -1056.59,2577.72 -1051.87,2577.72C-1049.5,2577.72 -1047.75,2578.66 -1046.62,2580.53C-1045.49,2582.41 -1044.93,2585.23 -1044.93,2588.99C-1044.93,2596.51 -1047.26,2600.26 -1051.92,2600.26C-1056.61,2600.26 -1058.95,2596.51 -1058.95,2588.99L-1058.95,2588.99ZM-1289.19,2586.89C-1288.13,2586.88 -1287.07,2586.73 -1286.03,2586.45L-1282.38,2585.44C-1281.79,2585.28 -1281.18,2585.63 -1281.03,2586.22C-1280.81,2587.07 -1281.12,2587.97 -1281.83,2588.5L-1287.78,2593C-1288.24,2593.54 -1288.84,2593.83 -1288.81,2594.59C-1288.32,2596.88 -1286.71,2598.56 -1284.02,2599.6C-1283.81,2599.67 -1283.61,2599.74 -1283.41,2599.81C-1282.53,2600.03 -1280.66,2600.21 -1278.88,2598.63C-1278.61,2598.39 -1277.67,2597.69 -1277.51,2597.54C-1275.35,2595.57 -1273.2,2593.25 -1271.38,2590.59C-1270.19,2588.86 -1269.14,2586.99 -1268.31,2584.98C-1267.08,2582.03 -1266.32,2578.78 -1266.29,2575.22C-1266.29,2575 -1266.39,2572.39 -1266.55,2571.26C-1267.17,2566.77 -1268.71,2563.91 -1270.72,2562.18C-1271.3,2561.68 -1271.93,2561.26 -1272.58,2560.94C-1273.33,2560.56 -1274.12,2560.3 -1274.93,2560.12C-1276.57,2559.77 -1278.3,2559.78 -1279.95,2560.01L-1279.96,2560.01C-1280.5,2560.08 -1281.05,2560.17 -1281.57,2560.28C-1285.19,2561.05 -1288.23,2562.59 -1289.07,2563.04L-1289.07,2563.17C-1289.08,2563.16 -1289.12,2563.14 -1289.19,2563.1C-1289.26,2563.14 -1289.3,2563.16 -1289.3,2563.17L-1289.3,2563.17C-1289.3,2563.17 -1289.31,2563.17 -1289.31,2563.17C-1289.31,2563.17 -1289.31,2563.17 -1289.31,2563.17L-1289.31,2563.17C-1289.31,2563.17 -1289.31,2563.17 -1289.31,2563.17L-1289.31,2563.03C-1290.17,2562.58 -1293.21,2561.05 -1296.81,2560.28C-1297.33,2560.17 -1297.87,2560.08 -1298.42,2560.01L-1298.43,2560.01C-1300.09,2559.78 -1301.81,2559.77 -1303.45,2560.12C-1304.26,2560.3 -1305.05,2560.56 -1305.8,2560.94C-1306.46,2561.26 -1307.08,2561.68 -1307.66,2562.18C-1309.67,2563.91 -1311.21,2566.77 -1311.84,2571.26C-1312,2572.39 -1312.1,2575 -1312.09,2575.22C-1312.06,2578.78 -1311.3,2582.03 -1310.07,2584.98C-1309.25,2586.99 -1308.19,2588.86 -1307.01,2590.59C-1305.18,2593.25 -1303.03,2595.57 -1300.87,2597.54C-1300.66,2597.73 -1299.43,2598.77 -1299.35,2598.84C-1297.56,2600.26 -1295.75,2600 -1294.96,2599.78C-1294.79,2599.72 -1294.62,2599.66 -1294.44,2599.6C-1291.81,2598.57 -1290.23,2596.91 -1289.73,2594.64C-1289.67,2593.83 -1290.31,2593.54 -1290.78,2592.98L-1290.77,2592.98L-1296.58,2588.51C-1297.27,2587.97 -1297.58,2587.08 -1297.36,2586.23L-1297.36,2586.22C-1297.21,2585.63 -1296.6,2585.28 -1296,2585.44L-1292.35,2586.45C-1291.32,2586.73 -1290.26,2586.88 -1289.19,2586.89ZM-1164.19,2593.22L-1167.94,2579.49L-1171.86,2593.22L-1164.19,2593.22ZM-1302.56,2571.3C-1303.05,2571.34 -1303.38,2571.8 -1303.28,2572.27C-1303.22,2572.55 -1303.15,2572.82 -1303.08,2573.09C-1302.99,2573.42 -1302.71,2573.64 -1302.39,2573.76C-1293.27,2577.18 -1294.59,2580.38 -1294.59,2580.38C-1294.59,2580.38 -1292.73,2578.24 -1292.16,2576.35C-1292.16,2576.35 -1292.17,2576.35 -1292.17,2576.35C-1291.91,2575.52 -1291.75,2574.56 -1291.64,2573.72C-1291.58,2573.14 -1291.93,2572.6 -1292.49,2572.42C-1295.68,2571.41 -1299.09,2571 -1302.56,2571.3ZM-1286.21,2576.35C-1286.22,2576.35 -1286.22,2576.35 -1286.22,2576.35C-1285.66,2578.24 -1283.79,2580.38 -1283.79,2580.38C-1283.79,2580.38 -1285.12,2577.18 -1276,2573.76C-1275.68,2573.64 -1275.4,2573.42 -1275.31,2573.09C-1275.24,2572.82 -1275.17,2572.55 -1275.11,2572.27C-1275,2571.8 -1275.34,2571.34 -1275.83,2571.3C-1279.29,2571 -1282.71,2571.41 -1285.9,2572.42C-1286.46,2572.6 -1286.81,2573.14 -1286.74,2573.72C-1286.64,2574.56 -1286.47,2575.52 -1286.21,2576.35Z"/>
        </clipPath>
        <g clip-path="url(#_clip1)">
            <g transform="matrix(0.239572,0,0,0.237338,-1340.21,2523.31)">
                <path d="M468.732,345.3C473.249,346.066 477.451,346.45 481.342,346.45C484.101,346.45 486.642,346.321 488.965,346.066C491.286,345.809 493.953,345.555 496.965,345.3L520.304,253.548L541.949,345.3C547.595,346.066 552.801,346.45 557.571,346.45C562.465,346.45 567.17,346.066 571.688,345.3L604.249,207.577C601.991,207.322 599.668,207.068 597.285,206.811C594.9,206.556 592.453,206.427 589.945,206.427C585.804,206.427 581.787,206.811 577.899,207.577L558.512,313.886L534.232,207.577C529.838,206.811 525.762,206.427 521.998,206.427C519.739,206.427 517.542,206.523 515.41,206.715C513.275,206.906 510.954,207.194 508.446,207.577L485.107,311.205L465.72,207.577C463.462,207.068 461.171,206.748 458.85,206.619C456.527,206.493 454.239,206.427 451.98,206.427C446.207,206.427 441.063,206.811 436.546,207.577L468.732,345.3Z" style="fill:none;"/>
            </g>
            <g transform="matrix(0.239572,0,0,0.237338,-1340.21,2523.31)">
                <path d="M661.847,345.3C666.364,346.066 670.943,346.45 675.587,346.45C679.728,346.45 684.056,346.066 688.574,345.3L696.291,317.717L741.087,317.717L748.616,345.3C753.133,346.066 757.774,346.45 762.544,346.45C767.438,346.45 772.455,346.066 777.602,345.3L735.252,207.577C732.364,207.194 729.729,206.906 727.347,206.715C724.962,206.523 722.515,206.427 720.006,206.427C717.118,206.427 714.483,206.523 712.101,206.715C709.716,206.906 707.208,207.194 704.572,207.577L661.847,345.3ZM702.69,294.54L719.065,236.692L734.687,294.54L702.69,294.54Z" style="fill:none;"/>
            </g>
            <g transform="matrix(0.239572,0,0,0.237338,-1340.21,2523.31)">
                <path d="M852.701,345.3L926.671,345.3C927.048,343.13 927.298,341.056 927.424,339.075C927.547,337.097 927.612,335.085 927.612,333.041C927.612,331.254 927.547,329.372 927.424,327.39C927.298,325.412 927.048,323.338 926.671,321.165L879.804,321.165L879.804,207.577C875.034,206.811 870.455,206.427 866.064,206.427C861.797,206.427 857.342,206.811 852.701,207.577L852.701,345.3Z" style="fill:none;"/>
            </g>
            <g transform="matrix(0.239572,0,0,0.237338,-1340.21,2523.31)">
                <path d="M1003.28,345.3L1077.25,345.3C1077.62,343.13 1077.87,341.056 1078,339.075C1078.12,337.097 1078.19,335.085 1078.19,333.041C1078.19,331.254 1078.12,329.372 1078,327.39C1077.87,325.412 1077.62,323.338 1077.25,321.165L1030.38,321.165L1030.38,207.577C1025.61,206.811 1021.03,206.427 1016.64,206.427C1012.37,206.427 1007.92,206.811 1003.28,207.577L1003.28,345.3Z" style="fill:none;"/>
            </g>
            <g transform="matrix(0.239572,0,0,0.237338,-1340.21,2523.31)">
                <path d="M1229.7,342.235C1237.11,338.662 1243.19,333.712 1247.96,327.39C1252.73,321.069 1256.27,313.599 1258.6,304.979C1260.92,296.36 1262.08,286.944 1262.08,276.726C1262.08,266.511 1260.92,257.029 1258.6,248.281C1256.27,239.535 1252.73,231.969 1247.96,225.582C1243.19,219.198 1237.11,214.218 1229.7,210.642C1222.3,207.068 1213.52,205.278 1203.35,205.278C1193.19,205.278 1184.4,207.068 1177,210.642C1169.6,214.218 1163.51,219.198 1158.75,225.582C1153.98,231.969 1150.43,239.535 1148.11,248.281C1145.79,257.029 1144.63,266.511 1144.63,276.726C1144.63,286.944 1145.79,296.36 1148.11,304.979C1150.43,313.599 1153.98,321.069 1158.75,327.39C1163.51,333.712 1169.6,338.662 1177,342.235C1184.4,345.809 1193.19,347.599 1203.35,347.599C1213.52,347.599 1222.3,345.809 1229.7,342.235ZM1173.99,276.726C1173.99,245.057 1183.84,229.222 1203.54,229.222C1213.45,229.222 1220.76,233.181 1225.47,241.098C1230.17,249.017 1232.53,260.893 1232.53,276.726C1232.53,308.397 1222.8,324.23 1203.35,324.23C1183.78,324.23 1173.99,308.397 1173.99,276.726L1173.99,276.726Z" style="fill:none;"/>
            </g>
            <g transform="matrix(0.239572,0,0,0.237338,-1340.21,2523.31)">
                <path d="M1343.58,345.3C1346.09,345.683 1348.53,345.938 1350.92,346.066C1353.3,346.192 1355.56,346.258 1357.69,346.258C1359.83,346.258 1362.02,346.162 1364.28,345.971C1366.54,345.779 1368.8,345.555 1371.06,345.3L1371.06,229.03C1373.32,228.647 1375.82,228.456 1378.59,228.456C1385.74,228.456 1391.57,230.341 1396.09,234.106C1400.61,237.874 1402.87,243.779 1402.87,251.824C1402.87,255.913 1402.05,259.456 1400.42,262.455C1398.79,265.457 1396.81,268.01 1394.49,270.117C1392.17,272.224 1389.75,273.981 1387.24,275.385C1384.73,276.792 1382.6,277.941 1380.84,278.833L1376.33,281.131L1411.71,345.109C1416.35,345.875 1421.06,346.258 1425.83,346.258C1428.71,346.258 1431.54,346.129 1434.3,345.875C1437.06,345.618 1439.69,345.363 1442.2,345.109L1409.27,286.878L1412.46,284.771C1414.47,283.496 1416.61,281.802 1418.87,279.695C1421.12,277.588 1423.22,275.068 1425.17,272.129C1427.11,269.193 1428.71,265.778 1429.97,261.881C1431.22,257.987 1431.85,253.486 1431.85,248.377C1431.85,239.823 1430.19,232.765 1426.86,227.21C1423.54,221.656 1419.18,217.25 1413.78,213.994C1408.39,210.737 1402.33,208.472 1395.62,207.194C1388.9,205.919 1382.1,205.278 1375.2,205.278C1369.3,205.278 1363.93,205.503 1359.11,205.949C1354.27,206.398 1349.1,206.939 1343.58,207.577L1343.58,345.3Z" style="fill:none;"/>
            </g>
        </g>
    </g>
</svg>
