<?xml version="1.0" encoding="UTF-8" standalone="no"?><!DOCTYPE svg PUBLIC "-//W3C//DTD SVG 1.1//EN" "http://www.w3.org/Graphics/SVG/1.1/DTD/svg11.dtd"><svg width="100%" height="100%" viewBox="0 0 458 64" version="1.1" xmlns="http://www.w3.org/2000/svg" xmlns:xlink="http://www.w3.org/1999/xlink" xml:space="preserve" xmlns:serif="http://www.serif.com/" style="fill-rule:evenodd;clip-rule:evenodd;stroke-linejoin:round;stroke-miterlimit:1.41421;"><g><path id="Screen" d="M0.009,0.209l457,0c0.107,5.57 0,3.096 0,9c0,26.382 -14.721,53.885 -50.042,53.885l-356.226,0c-35.32,0 -50.732,-26.808 -50.732,-53.19c0,-5.904 0.005,-0.05 0,-9.695Z" style="fill:#fff;fill-rule:nonzero;"/><path id="camera" d="M311.896,21.002c5.877,0 10.649,4.772 10.649,10.649c0,5.878 -4.772,10.65 -10.649,10.65l-0.238,0c-5.878,0 -10.65,-4.772 -10.65,-10.65c0,-5.877 4.772,-10.649 10.65,-10.649l0.238,0Zm-56.25,17.747l-113.159,0c-3.699,0 -7.323,-3.177 -7.323,-7.095c0,-3.918 3.624,-7.094 7.323,-7.094l113.159,0c3.699,0 7.323,3.176 7.323,7.094c0,3.918 -3.624,7.095 -7.323,7.095Z" style="fill:#eceff1;"/></g></svg>