<?xml version="1.0" encoding="utf-8"?>
<!-- Generator: Adobe Illustrator 18.0.0, SVG Export Plug-In . SVG Version: 6.00 Build 0)  -->
<!DOCTYPE svg PUBLIC "-//W3C//DTD SVG 1.1//EN" "http://www.w3.org/Graphics/SVG/1.1/DTD/svg11.dtd">
<svg version="1.1" xmlns="http://www.w3.org/2000/svg" xmlns:xlink="http://www.w3.org/1999/xlink" x="0px" y="0px"
	 viewBox="0 0 134 134" enable-background="new 0 0 134 134" xml:space="preserve">
<g id="Top_-_starting">
</g>
<g id="Ar_presentation_Vid">
</g>
<g id="_x23__x23__x23__x23__x23__x23_Join_us_on___-_normal">
</g>
<g id="Smart_Tracking">
	<g id="Layer_23">
	</g>
	<g>
		<path fill="#B38E50" d="M79,43h-2v-2c0-3.3-2.7-6-6-6h-8c-3.3,0-6,2.7-6,6v2h-2c-8.8,0-16,7.2-16,16v32c0,4.4,3.6,8,8,8h40
			c4.4,0,8-3.6,8-8V59C95,50.2,87.8,43,79,43z M61,41c0-1.1,0.9-2,2-2h8c1.1,0,2,0.9,2,2v2H61V41z M81,95H53V83h28V95z M81,79H53v-4
			c0-2.2,1.8-4,4-4h20c2.2,0,4,1.8,4,4V79z M91,91c0,2.2-1.8,4-4,4h-2V75c0-4.4-3.6-8-8-8H57c-4.4,0-8,3.6-8,8v20h-2
			c-2.2,0-4-1.8-4-4V59c0-6.6,5.4-12,12-12h24c6.6,0,12,5.4,12,12V91z M78,55H56c-0.6,0-1,0.4-1,1v2c0,0.6,0.4,1,1,1h22
			c0.6,0,1-0.4,1-1v-2C79,55.4,78.6,55,78,55z"/>
		<circle fill="none" stroke="#FFFFFF" stroke-width="2" stroke-miterlimit="10" cx="67" cy="67" r="66"/>
	</g>
</g>
<g id="Smart_Planner">
</g>
<g id="Global_Gps">
</g>
<g id="Smart_alerts">
</g>
<g id="_x23__x23__x23__x23__x23__x23_Join_us_on___-_normal_1_">
</g>
<g id="Wallet_-_premium_leather_-slim" display="none">
</g>
<g id="fam_of_products">
</g>
<g id="RFID">
</g>
<g id="Wireless_charging">
</g>
<g id="_x23__x23__x23__x23__x23__x23_Join_us_on___-_normal_copy_2">
</g>
<g id="Detachable_Powerbank">
</g>
<g id="money_shot">
</g>
<g id="_x23__x23__x23__x23__x23__x23_Join_us_on___-_normal_copy_3">
</g>
<g id="footer">
</g>
<g id="Top_-_starting_-_tablet">
</g>
<g id="Ar_presentation_vid_-_tablet">
</g>
<g id="_x23__x23__x23__x23__x23__x23_Join_us_on___-_normal_copy_1_">
</g>
<g id="Top_-_starting_-_mobile">
</g>
<g id="Ar_presentation_vid_-_mobile">
</g>
<g id="_x23__x23__x23__x23__x23__x23_Join_us_on___-_short_-__Mobile">
</g>
<g id="general_guides">
</g>
</svg>
