<?xml version="1.0" encoding="utf-8"?>
<!-- Generator: Adobe Illustrator 18.0.0, SVG Export Plug-In . SVG Version: 6.00 Build 0)  -->
<!DOCTYPE svg PUBLIC "-//W3C//DTD SVG 1.1//EN" "http://www.w3.org/Graphics/SVG/1.1/DTD/svg11.dtd">
<svg version="1.1" xmlns="http://www.w3.org/2000/svg" xmlns:xlink="http://www.w3.org/1999/xlink" x="0px" y="0px"
	 viewBox="0 0 134 134" enable-background="new 0 0 134 134" xml:space="preserve">
<g id="Top_-_starting">
</g>
<g id="Ar_presentation_Vid">
</g>
<g id="_x23__x23__x23__x23__x23__x23_Join_us_on___-_normal">
</g>
<g id="Smart_Tracking">
	<g id="Layer_23">
	</g>
	<g>
		<path fill="#B38E50" d="M95,67c2.9-1.8,4-4.4,4-7.7c0-4.6-3.8-8.3-8.5-8.3c-3.7,0-6.9,2.3-8,5.7c-0.8,2.3-0.7,2.3-1.9,2.3H53.4
			c-1.2,0-1.1-0.1-1.9-2.3c-1.2-3.4-4.4-5.7-8-5.7c-4.7,0-8.5,3.7-8.5,8.3c0,3.3,1.1,5.9,4,7.7c-2.9,1.8-4,4.4-4,7.7
			c0,4.6,3.8,8.3,8.5,8.3c3.7,0,6.9-2.3,8-5.7c0.8-2.3,0.7-2.3,1.9-2.3h27.2c1.2,0,1.1,0.1,1.9,2.3c1.2,3.4,4.4,5.7,8,5.7
			c4.7,0,8.5-3.7,8.5-8.3C99,71.4,97.9,68.8,95,67L95,67z M90.5,79.8c-2.3,0-4.3-1.4-5-3.5c-0.9-2.7-1.7-4.5-4.9-4.5H53.4
			c-3.2,0-4,1.8-4.9,4.5c-0.7,2.1-2.7,3.5-5,3.5c-2.9,0-5.3-2.3-5.3-5.1c0-2.3,0.7-4.2,2.9-5.2v0c1-0.5,1.6-1.4,1.6-2.5
			s-0.6-2-1.6-2.5v0c-2.2-1.1-2.9-2.9-2.9-5.2c0-2.8,2.4-5.1,5.3-5.1c2.3,0,4.3,1.4,5,3.5c0.9,2.7,1.7,4.5,4.9,4.5h27.2
			c3.2,0,4-1.8,4.9-4.5c0.7-2.1,2.7-3.5,5-3.5c2.9,0,5.3,2.3,5.3,5.1c0,2.3-0.7,4.2-2.9,5.2v0c-1,0.5-1.6,1.4-1.6,2.5s0.6,2,1.6,2.5
			v0c2.2,1.1,2.9,2.9,2.9,5.2C95.8,77.5,93.4,79.8,90.5,79.8z"/>
		<circle fill="none" stroke="#FFFFFF" stroke-width="2" stroke-miterlimit="10" cx="67" cy="67" r="66"/>
	</g>
</g>
<g id="Smart_Planner">
</g>
<g id="Global_Gps">
</g>
<g id="Smart_alerts">
</g>
<g id="_x23__x23__x23__x23__x23__x23_Join_us_on___-_normal_1_">
</g>
<g id="Wallet_-_premium_leather_-slim" display="none">
</g>
<g id="fam_of_products">
</g>
<g id="RFID">
</g>
<g id="Wireless_charging">
</g>
<g id="_x23__x23__x23__x23__x23__x23_Join_us_on___-_normal_copy_2">
</g>
<g id="Detachable_Powerbank">
</g>
<g id="money_shot">
</g>
<g id="_x23__x23__x23__x23__x23__x23_Join_us_on___-_normal_copy_3">
</g>
<g id="footer">
</g>
<g id="Top_-_starting_-_tablet">
</g>
<g id="Ar_presentation_vid_-_tablet">
</g>
<g id="_x23__x23__x23__x23__x23__x23_Join_us_on___-_normal_copy_1_">
</g>
<g id="Top_-_starting_-_mobile">
</g>
<g id="Ar_presentation_vid_-_mobile">
</g>
<g id="_x23__x23__x23__x23__x23__x23_Join_us_on___-_short_-__Mobile">
</g>
<g id="general_guides">
</g>
</svg>
