<?xml version="1.0" encoding="utf-8"?>
<!-- Generator: Adobe Illustrator 18.0.0, SVG Export Plug-In . SVG Version: 6.00 Build 0)  -->
<!DOCTYPE svg PUBLIC "-//W3C//DTD SVG 1.1//EN" "http://www.w3.org/Graphics/SVG/1.1/DTD/svg11.dtd">
<svg version="1.1" xmlns="http://www.w3.org/2000/svg" xmlns:xlink="http://www.w3.org/1999/xlink" x="0px" y="0px"
	 viewBox="0 0 134 134" enable-background="new 0 0 134 134" xml:space="preserve">
<g id="Top_-_starting">
</g>
<g id="Ar_presentation_Vid">
</g>
<g id="_x23__x23__x23__x23__x23__x23_Join_us_on___-_normal">
</g>
<g id="Smart_Tracking">
	<g id="Layer_23">
	</g>
	<g>
		<path fill="#B38E50" d="M93.7,42.1H40.3c-2.9,0-5.3,2.4-5.3,5.3v39.1c0,2.9,2.4,5.3,5.3,5.3h53.3c2.9,0,5.3-2.4,5.3-5.3V47.4
			C99,44.5,96.6,42.1,93.7,42.1z M95.4,86.6c0,1-0.8,1.8-1.8,1.8H40.3c-1,0-1.8-0.8-1.8-1.8V47.4c0-1,0.8-1.8,1.8-1.8h53.3
			c1,0,1.8,0.8,1.8,1.8V86.6z M56.3,79v0.9c0,0.7-0.6,1.3-1.3,1.3h-8c-0.7,0-1.3-0.6-1.3-1.3V79c0-0.7,0.6-1.3,1.3-1.3h8
			C55.7,77.7,56.3,78.3,56.3,79z M77.7,79v0.9c0,0.7-0.6,1.3-1.3,1.3H61.2c-0.7,0-1.3-0.6-1.3-1.3V79c0-0.7,0.6-1.3,1.3-1.3h15.1
			C77.1,77.7,77.7,78.3,77.7,79z"/>
		<circle fill="none" stroke="#FFFFFF" stroke-width="2" stroke-miterlimit="10" cx="67" cy="67" r="66"/>
	</g>
</g>
<g id="Smart_Planner">
</g>
<g id="Global_Gps">
</g>
<g id="Smart_alerts">
</g>
<g id="_x23__x23__x23__x23__x23__x23_Join_us_on___-_normal_1_">
</g>
<g id="Wallet_-_premium_leather_-slim" display="none">
</g>
<g id="fam_of_products">
</g>
<g id="RFID">
</g>
<g id="Wireless_charging">
</g>
<g id="_x23__x23__x23__x23__x23__x23_Join_us_on___-_normal_copy_2">
</g>
<g id="Detachable_Powerbank">
</g>
<g id="money_shot">
</g>
<g id="_x23__x23__x23__x23__x23__x23_Join_us_on___-_normal_copy_3">
</g>
<g id="footer">
</g>
<g id="Top_-_starting_-_tablet">
</g>
<g id="Ar_presentation_vid_-_tablet">
</g>
<g id="_x23__x23__x23__x23__x23__x23_Join_us_on___-_normal_copy_1_">
</g>
<g id="Top_-_starting_-_mobile">
</g>
<g id="Ar_presentation_vid_-_mobile">
</g>
<g id="_x23__x23__x23__x23__x23__x23_Join_us_on___-_short_-__Mobile">
</g>
<g id="general_guides">
</g>
</svg>
