<?xml version="1.0" encoding="utf-8"?>
<!-- Generator: Adobe Illustrator 18.0.0, SVG Export Plug-In . SVG Version: 6.00 Build 0)  -->
<!DOCTYPE svg PUBLIC "-//W3C//DTD SVG 1.1//EN" "http://www.w3.org/Graphics/SVG/1.1/DTD/svg11.dtd">
<svg version="1.1" xmlns="http://www.w3.org/2000/svg" xmlns:xlink="http://www.w3.org/1999/xlink" x="0px" y="0px"
	 viewBox="0 0 134 134" enable-background="new 0 0 134 134" xml:space="preserve">
<g id="Top_-_starting">
</g>
<g id="Ar_presentation_Vid">
</g>
<g id="_x23__x23__x23__x23__x23__x23_Join_us_on___-_normal">
</g>
<g id="Smart_Tracking">
	<g id="Layer_23">
	</g>
	<g>
		<path fill="#B38E50" d="M77,39c9.9,0,18,8.1,18,18s-8.1,18-18,18c-2.4,0-4.6-0.5-6.7-1.3L65,79h-6v8h-8v8H39V85l21.3-21.3
			C59.5,61.6,59,59.4,59,57C59,47.1,67.1,39,77,39 M77,35c-12.1,0-22,9.8-22,22c0,1.9,0.2,3.8,0.7,5.6L35.9,82.5
			C35.3,83,35,83.8,35,84.6V96c0,1.7,1.3,3,3,3h14c1.7,0,3-1.3,3-3v-5h5c1.7,0,3-1.3,3-3v-5h2.4c0.8,0,1.6-0.3,2.1-0.9l3.8-3.8
			c1.8,0.5,3.7,0.7,5.6,0.7c12.1,0,22-9.8,22-22C99,44.9,89.2,35,77,35z M83,48.5c1.4,0,2.5,1.1,2.5,2.5s-1.1,2.5-2.5,2.5
			s-2.5-1.1-2.5-2.5S81.6,48.5,83,48.5 M83,45c-3.3,0-6,2.7-6,6s2.7,6,6,6s6-2.7,6-6S86.3,45,83,45z"/>
		<circle fill="none" stroke="#FFFFFF" stroke-width="2" stroke-miterlimit="10" cx="67" cy="67" r="66"/>
	</g>
</g>
<g id="Smart_Planner">
</g>
<g id="Global_Gps">
</g>
<g id="Smart_alerts">
</g>
<g id="_x23__x23__x23__x23__x23__x23_Join_us_on___-_normal_1_">
</g>
<g id="Wallet_-_premium_leather_-slim" display="none">
</g>
<g id="fam_of_products">
</g>
<g id="RFID">
</g>
<g id="Wireless_charging">
</g>
<g id="_x23__x23__x23__x23__x23__x23_Join_us_on___-_normal_copy_2">
</g>
<g id="Detachable_Powerbank">
</g>
<g id="money_shot">
</g>
<g id="_x23__x23__x23__x23__x23__x23_Join_us_on___-_normal_copy_3">
</g>
<g id="footer">
</g>
<g id="Top_-_starting_-_tablet">
</g>
<g id="Ar_presentation_vid_-_tablet">
</g>
<g id="_x23__x23__x23__x23__x23__x23_Join_us_on___-_normal_copy_1_">
</g>
<g id="Top_-_starting_-_mobile">
</g>
<g id="Ar_presentation_vid_-_mobile">
</g>
<g id="_x23__x23__x23__x23__x23__x23_Join_us_on___-_short_-__Mobile">
</g>
<g id="general_guides">
</g>
</svg>
