<?xml version="1.0" encoding="utf-8"?>
<!-- Generator: Adobe Illustrator 18.0.0, SVG Export Plug-In . SVG Version: 6.00 Build 0)  -->
<!DOCTYPE svg PUBLIC "-//W3C//DTD SVG 1.1//EN" "http://www.w3.org/Graphics/SVG/1.1/DTD/svg11.dtd">
<svg version="1.1" xmlns="http://www.w3.org/2000/svg" xmlns:xlink="http://www.w3.org/1999/xlink" x="0px" y="0px"
	 viewBox="0 0 95 95" enable-background="new 0 0 95 95" xml:space="preserve">
<g id="Top_-_starting">
</g>
<g id="Ar_presentation_Vid">
</g>
<g id="_x23__x23__x23__x23__x23__x23_Join_us_on___-_normal">
</g>
<g id="Smart_Tracking">
	<g id="Layer_23">
	</g>
</g>
<g id="Smart_Planner">
</g>
<g id="Global_Gps">
</g>
<g id="Smart_alerts">
</g>
<g id="_x23__x23__x23__x23__x23__x23_Join_us_on___-_normal_1_">
</g>
<g id="Wallet_-_premium_leather_-slim" display="none">
</g>
<g id="fam_of_products">
</g>
<g id="RFID">
</g>
<g id="Wireless_charging">
</g>
<g id="_x23__x23__x23__x23__x23__x23_Join_us_on___-_normal_copy_2">
</g>
<g id="Detachable_Powerbank">
</g>
<g id="money_shot">
</g>
<g id="_x23__x23__x23__x23__x23__x23_Join_us_on___-_normal_copy_3">
</g>
<g id="footer">
</g>
<g id="Top_-_starting_-_tablet">
</g>
<g id="Layer_26">
</g>
<g id="Ar_presentation_vid_-_tablet">
</g>
<g id="_x23__x23__x23__x23__x23__x23_Join_us_on___-_normal_copy_1_">
</g>
<g id="Top_-_starting_-_mobile">
</g>
<g id="Ar_presentation_vid_-_mobile">
</g>
<g id="_x23__x23__x23__x23__x23__x23_Join_us_on___-_short_-__Mobile">
</g>
<g id="Smart_Tracking_copy">
	<g id="Layer_23_copy">
	</g>
	<g>
		<path fill="#0D324D" d="M66.3,30H28.7c-2.1,0-3.8,1.7-3.8,3.8v27.6c0,2.1,1.7,3.8,3.8,3.8h37.6c2.1,0,3.8-1.7,3.8-3.8V33.7
			C70,31.6,68.4,30,66.3,30z M67.5,61.3c0,0.7-0.6,1.3-1.3,1.3H28.7c-0.7,0-1.3-0.6-1.3-1.3V33.7c0-0.7,0.6-1.3,1.3-1.3h37.6
			c0.7,0,1.3,0.6,1.3,1.3V61.3z M40,56v0.6c0,0.5-0.4,0.9-0.9,0.9h-5.6c-0.5,0-0.9-0.4-0.9-0.9V56c0-0.5,0.4-0.9,0.9-0.9H39
			C39.6,55,40,55.4,40,56z M55,56v0.6c0,0.5-0.4,0.9-0.9,0.9H43.4c-0.5,0-0.9-0.4-0.9-0.9V56c0-0.5,0.4-0.9,0.9-0.9h10.6
			C54.6,55,55,55.4,55,56z"/>
		<path fill="none" stroke="#FFFFFF" stroke-width="2" stroke-miterlimit="10" d="M85.7,19.5c28,46.1-20.1,94.2-66.2,66.2
			c-4.1-2.5-7.6-6-10.2-10.2c-28-46.1,20.1-94.2,66.2-66.2C79.7,11.8,83.2,15.3,85.7,19.5z"/>
	</g>
</g>
<g id="Smart_Planner_copy">
</g>
<g id="Global_Gps_copy">
</g>
<g id="Smart_alerts_copy">
</g>
<g id="_x23__x23__x23__x23__x23__x23_Join_us_on___-_short_-__Mobile_copy">
</g>
<g id="fam_of_products_copy">
</g>
<g id="RFID_copy">
</g>
<g id="Wireless_charging_copy">
</g>
<g id="Detachable_Powerbank_copy">
</g>
<g id="_x23__x23__x23__x23__x23__x23_Join_us_on___-_short_-__Mobile_copy_2">
</g>
<g id="money_shot_copy">
</g>
<g id="_x23__x23__x23__x23__x23__x23_Join_us_on___-_short_-__Mobile_copy_3">
</g>
<g id="footer_copy">
</g>
<g id="general_guides">
</g>
</svg>
