<?xml version="1.0" encoding="utf-8"?>
<!-- Generator: Adobe Illustrator 18.0.0, SVG Export Plug-In . SVG Version: 6.00 Build 0)  -->
<!DOCTYPE svg PUBLIC "-//W3C//DTD SVG 1.1//EN" "http://www.w3.org/Graphics/SVG/1.1/DTD/svg11.dtd">
<svg version="1.1" xmlns="http://www.w3.org/2000/svg" xmlns:xlink="http://www.w3.org/1999/xlink" x="0px" y="0px"
	 viewBox="0 0 95 95" enable-background="new 0 0 95 95" xml:space="preserve">
<g id="Top_-_starting">
</g>
<g id="Ar_presentation_Vid">
</g>
<g id="_x23__x23__x23__x23__x23__x23_Join_us_on___-_normal">
</g>
<g id="Smart_Tracking">
	<g id="Layer_23">
	</g>
</g>
<g id="Smart_Planner">
</g>
<g id="Global_Gps">
</g>
<g id="Smart_alerts">
</g>
<g id="_x23__x23__x23__x23__x23__x23_Join_us_on___-_normal_1_">
</g>
<g id="Wallet_-_premium_leather_-slim" display="none">
</g>
<g id="fam_of_products">
</g>
<g id="RFID">
</g>
<g id="Wireless_charging">
</g>
<g id="_x23__x23__x23__x23__x23__x23_Join_us_on___-_normal_copy_2">
</g>
<g id="Detachable_Powerbank">
</g>
<g id="money_shot">
</g>
<g id="_x23__x23__x23__x23__x23__x23_Join_us_on___-_normal_copy_3">
</g>
<g id="footer">
</g>
<g id="Top_-_starting_-_tablet">
</g>
<g id="Layer_26">
</g>
<g id="Ar_presentation_vid_-_tablet">
</g>
<g id="_x23__x23__x23__x23__x23__x23_Join_us_on___-_normal_copy_1_">
</g>
<g id="Top_-_starting_-_mobile">
</g>
<g id="Ar_presentation_vid_-_mobile">
</g>
<g id="_x23__x23__x23__x23__x23__x23_Join_us_on___-_short_-__Mobile">
</g>
<g id="Smart_Tracking_copy">
	<g id="Layer_23_copy">
	</g>
	<g>
		<path fill="#0D324D" d="M64.4,25h-31c-3.1,0-5.6,2.5-5.6,5.6v33.8c0,3.1,2.5,5.6,5.6,5.6h31c1.6,0,2.8-1.3,2.8-2.8V27.8
			C67.2,26.2,66,25,64.4,25z M64.4,67.2h-31c-1.6,0-2.8-1.3-2.8-2.8V30.6c0-1.6,1.3-2.8,2.8-2.8h31V67.2z M37.6,61.6h19.7
			c0.8,0,1.4-0.6,1.4-1.4c0-0.8-0.6-1.4-1.4-1.4H37.6c-0.8,0-1.4,0.6-1.4,1.4C36.2,61,36.9,61.6,37.6,61.6z M47.5,53.1
			c6.2,0,11.3-5,11.3-11.3s-5-11.3-11.3-11.3s-11.3,5-11.3,11.3S41.3,53.1,47.5,53.1z M55.8,40.5h-3.4c-0.1-2.4-0.6-4.5-1.3-6.2
			C53.6,35.4,55.3,37.7,55.8,40.5z M52.4,43.3h3.4c-0.5,2.7-2.3,5-4.7,6.2C51.8,47.8,52.2,45.7,52.4,43.3z M47.5,33.5
			c0.7,0.7,1.8,3,2.1,6.9h-4.1C45.7,36.6,46.8,34.2,47.5,33.5z M49.6,43.3c-0.2,3.9-1.4,6.3-2.1,6.9c-0.7-0.7-1.8-3-2.1-6.9H49.6
			L49.6,43.3z M43.9,34.3c-0.7,1.7-1.1,3.8-1.3,6.2h-3.4C39.7,37.7,41.4,35.4,43.9,34.3z M42.6,43.3c0.1,2.4,0.6,4.5,1.3,6.2
			c-2.4-1.2-4.2-3.5-4.7-6.2H42.6z"/>
		<path fill="none" stroke="#FFFFFF" stroke-width="2" stroke-miterlimit="10" d="M85.7,19.5c28,46.1-20.1,94.2-66.2,66.2
			c-4.1-2.5-7.6-6-10.2-10.2c-28-46.1,20.1-94.2,66.2-66.2C79.7,11.8,83.2,15.3,85.7,19.5z"/>
	</g>
</g>
<g id="Smart_Planner_copy">
</g>
<g id="Global_Gps_copy">
</g>
<g id="Smart_alerts_copy">
</g>
<g id="_x23__x23__x23__x23__x23__x23_Join_us_on___-_short_-__Mobile_copy">
</g>
<g id="fam_of_products_copy">
</g>
<g id="RFID_copy">
</g>
<g id="Wireless_charging_copy">
</g>
<g id="Detachable_Powerbank_copy">
</g>
<g id="_x23__x23__x23__x23__x23__x23_Join_us_on___-_short_-__Mobile_copy_2">
</g>
<g id="money_shot_copy">
</g>
<g id="_x23__x23__x23__x23__x23__x23_Join_us_on___-_short_-__Mobile_copy_3">
</g>
<g id="footer_copy">
</g>
<g id="general_guides">
</g>
</svg>
