<?xml version="1.0" encoding="utf-8"?>
<!-- Generator: Adobe Illustrator 18.0.0, SVG Export Plug-In . SVG Version: 6.00 Build 0)  -->
<!DOCTYPE svg PUBLIC "-//W3C//DTD SVG 1.1//EN" "http://www.w3.org/Graphics/SVG/1.1/DTD/svg11.dtd">
<svg version="1.1" xmlns="http://www.w3.org/2000/svg" xmlns:xlink="http://www.w3.org/1999/xlink" x="0px" y="0px"
	 viewBox="0 0 95 95" enable-background="new 0 0 95 95" xml:space="preserve">
<g id="Top_-_starting">
</g>
<g id="Ar_presentation_Vid">
</g>
<g id="_x23__x23__x23__x23__x23__x23_Join_us_on___-_normal">
</g>
<g id="Smart_Tracking">
	<g id="Layer_23">
	</g>
</g>
<g id="Smart_Planner">
</g>
<g id="Global_Gps">
</g>
<g id="Smart_alerts">
</g>
<g id="_x23__x23__x23__x23__x23__x23_Join_us_on___-_normal_1_">
</g>
<g id="Wallet_-_premium_leather_-slim" display="none">
</g>
<g id="fam_of_products">
</g>
<g id="RFID">
</g>
<g id="Wireless_charging">
</g>
<g id="_x23__x23__x23__x23__x23__x23_Join_us_on___-_normal_copy_2">
</g>
<g id="Detachable_Powerbank">
</g>
<g id="money_shot">
</g>
<g id="_x23__x23__x23__x23__x23__x23_Join_us_on___-_normal_copy_3">
</g>
<g id="footer">
</g>
<g id="Top_-_starting_-_tablet">
</g>
<g id="Layer_26">
</g>
<g id="Ar_presentation_vid_-_tablet">
</g>
<g id="_x23__x23__x23__x23__x23__x23_Join_us_on___-_normal_copy_1_">
</g>
<g id="Top_-_starting_-_mobile">
</g>
<g id="Ar_presentation_vid_-_mobile">
</g>
<g id="_x23__x23__x23__x23__x23__x23_Join_us_on___-_short_-__Mobile">
</g>
<g id="Smart_Tracking_copy">
	<g id="Layer_23_copy">
	</g>
	<g>
		<path fill="#0D324D" d="M58.8,47.5c-1.6,0-2.8,1.3-2.8,2.8c0,1.6,1.3,2.8,2.8,2.8c1.6,0,2.8-1.3,2.8-2.8
			C61.6,48.8,60.3,47.5,58.8,47.5z M65.8,33.4h-1.4V32c0-2.3-1.9-4.2-4.2-4.2H33.4c-4.7,0-8.5,3.8-8.5,8.5v22.5
			c0,4.7,3.8,8.5,8.5,8.5h31c3.1,0,5.6-2.5,5.6-5.6v-24C70,35.3,68.2,33.4,65.8,33.4z M67.2,61.6c0,1.6-1.3,2.8-2.8,2.8h-31
			c-3.1,0-5.6-2.5-5.6-5.6V36.2c0-3.1,2.5-5.6,5.6-5.6h26.8c0.8,0,1.4,0.6,1.4,1.4v1.4H34.8c-0.8,0-1.4,0.6-1.4,1.4s0.6,1.4,1.4,1.4
			h31c0.8,0,1.4,0.6,1.4,1.4V61.6z"/>
		<path fill="none" stroke="#FFFFFF" stroke-width="2" stroke-miterlimit="10" d="M85.7,19.5c28,46.1-20.1,94.2-66.2,66.2
			c-4.1-2.5-7.6-6-10.2-10.2c-28-46.1,20.1-94.2,66.2-66.2C79.7,11.8,83.2,15.3,85.7,19.5z"/>
	</g>
</g>
<g id="Smart_Planner_copy">
</g>
<g id="Global_Gps_copy">
</g>
<g id="Smart_alerts_copy">
</g>
<g id="_x23__x23__x23__x23__x23__x23_Join_us_on___-_short_-__Mobile_copy">
</g>
<g id="fam_of_products_copy">
</g>
<g id="RFID_copy">
</g>
<g id="Wireless_charging_copy">
</g>
<g id="Detachable_Powerbank_copy">
</g>
<g id="_x23__x23__x23__x23__x23__x23_Join_us_on___-_short_-__Mobile_copy_2">
</g>
<g id="money_shot_copy">
</g>
<g id="_x23__x23__x23__x23__x23__x23_Join_us_on___-_short_-__Mobile_copy_3">
</g>
<g id="footer_copy">
</g>
<g id="general_guides">
</g>
</svg>
