<?xml version="1.0" encoding="utf-8"?>
<!-- Generator: Adobe Illustrator 18.0.0, SVG Export Plug-In . SVG Version: 6.00 Build 0)  -->
<!DOCTYPE svg PUBLIC "-//W3C//DTD SVG 1.1//EN" "http://www.w3.org/Graphics/SVG/1.1/DTD/svg11.dtd">
<svg version="1.1" xmlns="http://www.w3.org/2000/svg" xmlns:xlink="http://www.w3.org/1999/xlink" x="0px" y="0px"
	 viewBox="0 0 95 95" enable-background="new 0 0 95 95" xml:space="preserve">
<g id="Top_-_starting">
</g>
<g id="Ar_presentation_Vid">
</g>
<g id="_x23__x23__x23__x23__x23__x23_Join_us_on___-_normal">
</g>
<g id="Smart_Tracking">
	<g id="Layer_23">
	</g>
</g>
<g id="Smart_Planner">
</g>
<g id="Global_Gps">
</g>
<g id="Smart_alerts">
</g>
<g id="_x23__x23__x23__x23__x23__x23_Join_us_on___-_normal_1_">
</g>
<g id="Wallet_-_premium_leather_-slim" display="none">
</g>
<g id="fam_of_products">
</g>
<g id="RFID">
</g>
<g id="Wireless_charging">
</g>
<g id="_x23__x23__x23__x23__x23__x23_Join_us_on___-_normal_copy_2">
</g>
<g id="Detachable_Powerbank">
</g>
<g id="money_shot">
</g>
<g id="_x23__x23__x23__x23__x23__x23_Join_us_on___-_normal_copy_3">
</g>
<g id="footer">
</g>
<g id="Top_-_starting_-_tablet">
</g>
<g id="Layer_26">
</g>
<g id="Ar_presentation_vid_-_tablet">
</g>
<g id="_x23__x23__x23__x23__x23__x23_Join_us_on___-_normal_copy_1_">
</g>
<g id="Top_-_starting_-_mobile">
</g>
<g id="Ar_presentation_vid_-_mobile">
</g>
<g id="_x23__x23__x23__x23__x23__x23_Join_us_on___-_short_-__Mobile">
</g>
<g id="Smart_Tracking_copy">
	<g id="Layer_23_copy">
	</g>
	<g>
		<path fill="#0D324D" d="M56,30.6h-1.4v-1.4c0-2.3-1.9-4.2-4.2-4.2h-5.6c-2.3,0-4.2,1.9-4.2,4.2v1.4H39c-6.2,0-11.3,5-11.3,11.3
			v22.5c0,3.1,2.5,5.6,5.6,5.6h28.2c3.1,0,5.6-2.5,5.6-5.6V41.9C67.2,35.6,62.2,30.6,56,30.6z M43.3,29.2c0-0.8,0.6-1.4,1.4-1.4h5.6
			c0.8,0,1.4,0.6,1.4,1.4v1.4h-8.5V29.2z M57.4,67.2H37.6v-8.5h19.7V67.2z M57.4,56H37.6v-2.8c0-1.6,1.3-2.8,2.8-2.8h14.1
			c1.6,0,2.8,1.3,2.8,2.8V56z M64.4,64.4c0,1.6-1.3,2.8-2.8,2.8h-1.4V53.1c0-3.1-2.5-5.6-5.6-5.6H40.5c-3.1,0-5.6,2.5-5.6,5.6v14.1
			h-1.4c-1.6,0-2.8-1.3-2.8-2.8V41.9c0-4.7,3.8-8.5,8.5-8.5H56c4.7,0,8.5,3.8,8.5,8.5V64.4z M55.3,39H39.8c-0.4,0-0.7,0.3-0.7,0.7
			v1.4c0,0.4,0.3,0.7,0.7,0.7h15.5c0.4,0,0.7-0.3,0.7-0.7v-1.4C56,39.4,55.6,39,55.3,39z"/>
		<path fill="none" stroke="#FFFFFF" stroke-width="2" stroke-miterlimit="10" d="M85.7,19.5c28,46.1-20.1,94.2-66.2,66.2
			c-4.1-2.5-7.6-6-10.2-10.2c-28-46.1,20.1-94.2,66.2-66.2C79.7,11.8,83.2,15.3,85.7,19.5z"/>
	</g>
</g>
<g id="Smart_Planner_copy">
</g>
<g id="Global_Gps_copy">
</g>
<g id="Smart_alerts_copy">
</g>
<g id="_x23__x23__x23__x23__x23__x23_Join_us_on___-_short_-__Mobile_copy">
</g>
<g id="fam_of_products_copy">
</g>
<g id="RFID_copy">
</g>
<g id="Wireless_charging_copy">
</g>
<g id="Detachable_Powerbank_copy">
</g>
<g id="_x23__x23__x23__x23__x23__x23_Join_us_on___-_short_-__Mobile_copy_2">
</g>
<g id="money_shot_copy">
</g>
<g id="_x23__x23__x23__x23__x23__x23_Join_us_on___-_short_-__Mobile_copy_3">
</g>
<g id="footer_copy">
</g>
<g id="general_guides">
</g>
</svg>
