<?xml version="1.0" encoding="utf-8"?>
<!-- Generator: Adobe Illustrator 18.0.0, SVG Export Plug-In . SVG Version: 6.00 Build 0)  -->
<!DOCTYPE svg PUBLIC "-//W3C//DTD SVG 1.1//EN" "http://www.w3.org/Graphics/SVG/1.1/DTD/svg11.dtd">
<svg version="1.1" xmlns="http://www.w3.org/2000/svg" xmlns:xlink="http://www.w3.org/1999/xlink" x="0px" y="0px"
	 viewBox="0 0 95 95" enable-background="new 0 0 95 95" xml:space="preserve">
<g id="Top_-_starting">
</g>
<g id="Ar_presentation_Vid">
</g>
<g id="_x23__x23__x23__x23__x23__x23_Join_us_on___-_normal">
</g>
<g id="Smart_Tracking">
	<g id="Layer_23">
	</g>
</g>
<g id="Smart_Planner">
</g>
<g id="Global_Gps">
</g>
<g id="Smart_alerts">
</g>
<g id="_x23__x23__x23__x23__x23__x23_Join_us_on___-_normal_1_">
</g>
<g id="Wallet_-_premium_leather_-slim" display="none">
</g>
<g id="fam_of_products">
</g>
<g id="RFID">
</g>
<g id="Wireless_charging">
</g>
<g id="_x23__x23__x23__x23__x23__x23_Join_us_on___-_normal_copy_2">
</g>
<g id="Detachable_Powerbank">
</g>
<g id="money_shot">
</g>
<g id="_x23__x23__x23__x23__x23__x23_Join_us_on___-_normal_copy_3">
</g>
<g id="footer">
</g>
<g id="Top_-_starting_-_tablet">
</g>
<g id="Layer_26">
</g>
<g id="Ar_presentation_vid_-_tablet">
</g>
<g id="_x23__x23__x23__x23__x23__x23_Join_us_on___-_normal_copy_1_">
</g>
<g id="Top_-_starting_-_mobile">
</g>
<g id="Ar_presentation_vid_-_mobile">
</g>
<g id="_x23__x23__x23__x23__x23__x23_Join_us_on___-_short_-__Mobile">
</g>
<g id="Smart_Tracking_copy">
	<g id="Layer_23_copy">
	</g>
	<g>
		<path fill="#0D324D" d="M67.3,47.5c2-1.3,2.8-3.1,2.8-5.4c0-3.2-2.7-5.8-6-5.8c-2.6,0-4.8,1.6-5.7,4c-0.5,1.6-0.5,1.6-1.3,1.6
			H37.9c-0.8,0-0.8-0.1-1.3-1.6c-0.8-2.4-3.1-4-5.7-4c-3.3,0-6,2.6-6,5.8c0,2.3,0.8,4.2,2.8,5.4c-2,1.3-2.8,3.1-2.8,5.4
			c0,3.2,2.7,5.8,6,5.8c2.6,0,4.8-1.6,5.7-4c0.5-1.6,0.5-1.6,1.3-1.6h19.2c0.8,0,0.8,0.1,1.3,1.6c0.8,2.4,3.1,4,5.7,4
			c3.3,0,6-2.6,6-5.8C70,50.6,69.3,48.8,67.3,47.5L67.3,47.5z M64.1,56.5c-1.6,0-3-1-3.5-2.5c-0.6-1.9-1.2-3.2-3.5-3.2H37.9
			c-2.3,0-2.8,1.3-3.5,3.2c-0.5,1.5-1.9,2.5-3.5,2.5c-2.1,0-3.7-1.6-3.7-3.6c0-1.7,0.5-2.9,2-3.7v0c0.7-0.3,1.1-1,1.1-1.7
			s-0.4-1.4-1.1-1.7v0c-1.6-0.8-2-2-2-3.7c0-2,1.7-3.6,3.7-3.6c1.6,0,3,1,3.5,2.5c0.6,1.9,1.2,3.2,3.5,3.2h19.2
			c2.3,0,2.8-1.3,3.5-3.2c0.5-1.5,1.9-2.5,3.5-2.5c2.1,0,3.7,1.6,3.7,3.6c0,1.7-0.5,2.9-2,3.7v0c-0.7,0.3-1.1,1-1.1,1.7
			s0.4,1.4,1.1,1.7v0c1.6,0.8,2,2,2,3.7C67.8,54.9,66.1,56.5,64.1,56.5z"/>
		<path fill="none" stroke="#FFFFFF" stroke-width="2" stroke-miterlimit="10" d="M85.7,19.5c28,46.1-20.1,94.2-66.2,66.2
			c-4.1-2.5-7.6-6-10.2-10.2c-28-46.1,20.1-94.2,66.2-66.2C79.7,11.8,83.2,15.3,85.7,19.5z"/>
	</g>
</g>
<g id="Smart_Planner_copy">
</g>
<g id="Global_Gps_copy">
</g>
<g id="Smart_alerts_copy">
</g>
<g id="_x23__x23__x23__x23__x23__x23_Join_us_on___-_short_-__Mobile_copy">
</g>
<g id="fam_of_products_copy">
</g>
<g id="RFID_copy">
</g>
<g id="Wireless_charging_copy">
</g>
<g id="Detachable_Powerbank_copy">
</g>
<g id="_x23__x23__x23__x23__x23__x23_Join_us_on___-_short_-__Mobile_copy_2">
</g>
<g id="money_shot_copy">
</g>
<g id="_x23__x23__x23__x23__x23__x23_Join_us_on___-_short_-__Mobile_copy_3">
</g>
<g id="footer_copy">
</g>
<g id="general_guides">
</g>
</svg>
