<?xml version="1.0" encoding="utf-8"?>
<!-- Generator: Adobe Illustrator 18.0.0, SVG Export Plug-In . SVG Version: 6.00 Build 0)  -->
<!DOCTYPE svg PUBLIC "-//W3C//DTD SVG 1.1//EN" "http://www.w3.org/Graphics/SVG/1.1/DTD/svg11.dtd">
<svg version="1.1" xmlns="http://www.w3.org/2000/svg" xmlns:xlink="http://www.w3.org/1999/xlink" x="0px" y="0px"
	 viewBox="0 0 134 134" enable-background="new 0 0 134 134" xml:space="preserve">
<g id="Top_-_starting">
</g>
<g id="Ar_presentation_Vid">
</g>
<g id="_x23__x23__x23__x23__x23__x23_Join_us_on___-_normal">
</g>
<g id="Smart_Tracking">
	<g id="Layer_23">
	</g>
	<g>
		<path fill="#B38E50" d="M91,35H47c-4.4,0-8,3.6-8,8v48c0,4.4,3.6,8,8,8h44c2.2,0,4-1.8,4-4V39C95,36.8,93.2,35,91,35z M91,95H47
			c-2.2,0-4-1.8-4-4V43c0-2.2,1.8-4,4-4h44V95z M53,87h28c1.1,0,2-0.9,2-2s-0.9-2-2-2H53c-1.1,0-2,0.9-2,2S51.9,87,53,87z M67,75
			c8.8,0,16-7.2,16-16s-7.2-16-16-16s-16,7.2-16,16S58.2,75,67,75z M78.8,57h-4.9c-0.2-3.4-0.8-6.4-1.8-8.8
			C75.6,49.9,78.1,53.1,78.8,57z M73.9,61h4.9c-0.7,3.9-3.2,7.1-6.7,8.8C73.1,67.4,73.7,64.4,73.9,61z M67,47.2
			c1,0.9,2.6,4.3,2.9,9.8h-5.9C64.4,51.5,66,48.1,67,47.2z M69.9,61c-0.3,5.5-2,8.9-2.9,9.8c-1-0.9-2.6-4.3-2.9-9.8H69.9L69.9,61z
			 M61.9,48.2c-1,2.4-1.6,5.4-1.8,8.8h-4.9C55.9,53.1,58.4,49.9,61.9,48.2z M60.1,61c0.2,3.4,0.8,6.4,1.8,8.8
			c-3.5-1.7-6-4.9-6.7-8.8H60.1z"/>
		<circle fill="none" stroke="#FFFFFF" stroke-width="2" stroke-miterlimit="10" cx="67" cy="67" r="66"/>
	</g>
</g>
<g id="Smart_Planner">
</g>
<g id="Global_Gps">
</g>
<g id="Smart_alerts">
</g>
<g id="_x23__x23__x23__x23__x23__x23_Join_us_on___-_normal_1_">
</g>
<g id="Wallet_-_premium_leather_-slim" display="none">
</g>
<g id="fam_of_products">
</g>
<g id="RFID">
</g>
<g id="Wireless_charging">
</g>
<g id="_x23__x23__x23__x23__x23__x23_Join_us_on___-_normal_copy_2">
</g>
<g id="Detachable_Powerbank">
</g>
<g id="money_shot">
</g>
<g id="_x23__x23__x23__x23__x23__x23_Join_us_on___-_normal_copy_3">
</g>
<g id="footer">
</g>
<g id="Top_-_starting_-_tablet">
</g>
<g id="Ar_presentation_vid_-_tablet">
</g>
<g id="_x23__x23__x23__x23__x23__x23_Join_us_on___-_normal_copy_1_">
</g>
<g id="Top_-_starting_-_mobile">
</g>
<g id="Ar_presentation_vid_-_mobile">
</g>
<g id="_x23__x23__x23__x23__x23__x23_Join_us_on___-_short_-__Mobile">
</g>
<g id="general_guides">
</g>
</svg>
