<?xml version="1.0" encoding="utf-8"?>
<!-- Generator: Adobe Illustrator 18.0.0, SVG Export Plug-In . SVG Version: 6.00 Build 0)  -->
<!DOCTYPE svg PUBLIC "-//W3C//DTD SVG 1.1//EN" "http://www.w3.org/Graphics/SVG/1.1/DTD/svg11.dtd">
<svg version="1.1" id="Layer_1" xmlns:serif="http://www.serif.com/"
	 xmlns="http://www.w3.org/2000/svg" xmlns:xlink="http://www.w3.org/1999/xlink" x="0px" y="0px" viewBox="0 0 60 60"
	 enable-background="new 0 0 60 60" xml:space="preserve">
<path id="Wallor" fill="#ffffff" d="M6.3,21.4L6.3,21.4L6.3,21.4L6.3,21.4L6.3,21.4L6.3,21.4L6.3,21.4L6.3,21.4L6.3,21.4L6.3,21.4
	c3.5,0,6.3,2.9,6.3,6.4c0,5-5.7,10.4-6.3,10.9v0l0,0l0,0v0h0l0,0v0l0,0v0c-0.6-0.5-6.3-5.9-6.3-10.9C0.1,24.2,2.9,21.4,6.3,21.4z
	 M50.6,32.8c0.3-0.2,0.6-0.4,0.8-0.6s0.4-0.6,0.5-1C52,30.8,52,30.4,52,30c0-0.4-0.1-0.8-0.2-1.2c-0.1-0.4-0.3-0.7-0.5-1
	c-0.2-0.3-0.5-0.5-0.8-0.6c-0.3-0.2-0.7-0.2-1.1-0.2c-0.4,0-0.8,0.1-1.1,0.2c-0.3,0.2-0.6,0.4-0.8,0.6c-0.2,0.3-0.4,0.6-0.5,1
	c-0.1,0.4-0.2,0.8-0.2,1.2c0,0.4,0.1,0.8,0.2,1.2c0.1,0.4,0.3,0.7,0.5,1c0.2,0.3,0.5,0.5,0.8,0.6c0.3,0.2,0.7,0.2,1.1,0.2
	C49.9,33.1,50.3,33,50.6,32.8z M6.3,31.7c-0.1,0-0.3,0-0.4,0.1c-0.1,0.1-0.3,0.2-0.5,0.3c-0.2,0.1-0.3,0.3-0.1,0.4
	c0.2,0.1,0.4,0.2,0.4,0.2C6.1,32.9,6.3,33,6.3,33c0.1,0,0.3-0.1,0.6-0.3c0,0,0.2-0.1,0.4-0.2v0c0.2-0.1,0.1-0.3-0.1-0.4
	C7,32,6.8,31.9,6.7,31.8C6.6,31.7,6.4,31.7,6.3,31.7z M17.5,33c0.2,0,0.4,0,0.5,0c0.1,0,0.2,0,0.3,0c0.1,0,0.2,0,0.3,0l1-4l0.9,4
	c0.2,0,0.5,0,0.7,0c0.2,0,0.4,0,0.6,0l1.4-5.9c-0.1,0-0.2,0-0.3,0c-0.1,0-0.2,0-0.3,0c-0.2,0-0.4,0-0.5,0l-0.8,4.6L20.3,27
	c-0.2,0-0.4,0-0.5,0c-0.1,0-0.2,0-0.3,0c-0.1,0-0.2,0-0.3,0l-1,4.5L17.3,27c-0.1,0-0.2,0-0.3,0c-0.1,0-0.2,0-0.3,0
	c-0.3,0-0.5,0-0.7,0L17.5,33z M27.4,31.8L27,33c-0.2,0-0.4,0-0.6,0c-0.2,0-0.4,0-0.6,0l1.9-5.9c0.1,0,0.2,0,0.3,0c0.1,0,0.2,0,0.3,0
	c0.1,0,0.2,0,0.3,0c0.1,0,0.2,0,0.3,0l1.8,5.9c-0.2,0-0.4,0-0.7,0c-0.2,0-0.4,0-0.6,0l-0.3-1.2H27.4z M55.6,33c0.1,0,0.2,0,0.3,0
	s0.2,0,0.3,0c0.1,0,0.2,0,0.3,0c0.1,0,0.2,0,0.3,0v-5c0.1,0,0.2,0,0.3,0c0.3,0,0.6,0.1,0.8,0.2c0.2,0.2,0.3,0.4,0.3,0.8
	c0,0.2,0,0.3-0.1,0.5c-0.1,0.1-0.2,0.2-0.3,0.3c-0.1,0.1-0.2,0.2-0.3,0.2c-0.1,0.1-0.2,0.1-0.3,0.1L57,30.2l1.5,2.8
	c0.2,0,0.4,0,0.6,0c0.1,0,0.2,0,0.4,0c0.1,0,0.2,0,0.3,0l-1.4-2.5l0.1-0.1c0.1-0.1,0.2-0.1,0.3-0.2c0.1-0.1,0.2-0.2,0.3-0.3
	c0.1-0.1,0.2-0.3,0.2-0.4c0.1-0.2,0.1-0.4,0.1-0.6c0-0.4-0.1-0.7-0.2-0.9c-0.1-0.2-0.3-0.4-0.6-0.6c-0.2-0.1-0.5-0.2-0.8-0.3
	c-0.3-0.1-0.6-0.1-0.9-0.1c-0.3,0-0.5,0-0.7,0c-0.2,0-0.4,0-0.7,0.1V33z M37.4,33h-3.2V27c0.2,0,0.4,0,0.6,0c0.2,0,0.4,0,0.6,0v4.9
	h2c0,0.1,0,0.2,0,0.3c0,0.1,0,0.2,0,0.2c0,0.1,0,0.2,0,0.3C37.4,32.8,37.4,32.9,37.4,33z M44,33h-3.2V27c0.2,0,0.4,0,0.6,0
	c0.2,0,0.4,0,0.6,0v4.9h2c0,0.1,0,0.2,0,0.3c0,0.1,0,0.2,0,0.2c0,0.1,0,0.2,0,0.3C44,32.8,44,32.9,44,33z M48.2,30
	c0-1.4,0.4-2,1.3-2c0.4,0,0.7,0.2,1,0.5c0.2,0.3,0.3,0.9,0.3,1.5c0,1.4-0.4,2-1.3,2C48.6,32,48.2,31.4,48.2,30L48.2,30z M6.3,29.6
	c0.2,0,0.4,0,0.6-0.1l0.7-0.2c0.1,0,0.2,0,0.2,0.1c0,0.2,0,0.3-0.1,0.4l-1.1,0.8c-0.1,0.1-0.2,0.2-0.2,0.3c0.1,0.4,0.4,0.7,0.9,0.9
	c0,0,0.1,0,0.1,0c0.2,0,0.5,0.1,0.8-0.2c0,0,0.2-0.2,0.2-0.2c0.4-0.4,0.8-0.8,1.1-1.3c0.2-0.3,0.4-0.7,0.6-1
	c0.2-0.5,0.4-1.1,0.4-1.8c0,0,0-0.5,0-0.7c-0.1-0.8-0.4-1.3-0.8-1.7C9.6,25,9.5,25,9.3,24.9c-0.1-0.1-0.3-0.1-0.4-0.1
	c-0.3-0.1-0.6-0.1-0.9,0h0c-0.1,0-0.2,0-0.3,0c-0.7,0.1-1.2,0.4-1.4,0.5v0c0,0,0,0,0,0c0,0,0,0,0,0l0,0h0l0,0l0,0l0,0v0
	c-0.2-0.1-0.7-0.4-1.4-0.5c-0.1,0-0.2,0-0.3,0h0c-0.3,0-0.6,0-0.9,0c-0.1,0-0.3,0.1-0.4,0.1C3.2,25,3.1,25,3,25.1
	c-0.4,0.3-0.6,0.8-0.8,1.7c0,0.2,0,0.7,0,0.7c0,0.6,0.1,1.2,0.4,1.8c0.1,0.4,0.3,0.7,0.6,1c0.3,0.5,0.7,0.9,1.1,1.3
	c0,0,0.3,0.2,0.3,0.2C4.8,32,5.1,32,5.3,32c0,0,0.1,0,0.1,0c0.5-0.2,0.8-0.5,0.9-0.9c0-0.1-0.1-0.2-0.2-0.3h0L5,29.9
	c-0.1-0.1-0.2-0.3-0.1-0.4v0c0-0.1,0.1-0.2,0.2-0.1l0.7,0.2C5.9,29.6,6.1,29.6,6.3,29.6z M29.1,30.8l-0.7-2.5l-0.7,2.5H29.1z
	 M3.9,26.8c-0.1,0-0.1,0.1-0.1,0.2c0,0.1,0,0.1,0,0.1c0,0.1,0.1,0.1,0.1,0.1c1.7,0.6,1.4,1.2,1.4,1.2s0.3-0.4,0.4-0.7h0
	c0-0.2,0.1-0.3,0.1-0.5c0-0.1-0.1-0.2-0.2-0.2C5.1,26.8,4.5,26.7,3.9,26.8z M6.9,27.7C6.9,27.7,6.9,27.7,6.9,27.7
	C7,28,7.3,28.4,7.3,28.4s-0.2-0.6,1.4-1.2c0.1,0,0.1-0.1,0.1-0.1c0,0,0-0.1,0-0.1c0-0.1,0-0.2-0.1-0.2c-0.6-0.1-1.3,0-1.8,0.2
	c-0.1,0-0.2,0.1-0.2,0.2C6.8,27.4,6.8,27.5,6.9,27.7z"/>
<g>
	<defs>
		<path id="SVGID_1_" d="M6.3,21.4L6.3,21.4L6.3,21.4L6.3,21.4L6.3,21.4L6.3,21.4L6.3,21.4L6.3,21.4L6.3,21.4L6.3,21.4
			c3.5,0,6.3,2.9,6.3,6.4c0,5-5.7,10.4-6.3,10.9v0l0,0l0,0v0h0l0,0v0l0,0v0c-0.6-0.5-6.3-5.9-6.3-10.9C0.1,24.2,2.9,21.4,6.3,21.4z
			 M50.6,32.8c0.3-0.2,0.6-0.4,0.8-0.6s0.4-0.6,0.5-1C52,30.8,52,30.4,52,30c0-0.4-0.1-0.8-0.2-1.2c-0.1-0.4-0.3-0.7-0.5-1
			c-0.2-0.3-0.5-0.5-0.8-0.6c-0.3-0.2-0.7-0.2-1.1-0.2c-0.4,0-0.8,0.1-1.1,0.2c-0.3,0.2-0.6,0.4-0.8,0.6c-0.2,0.3-0.4,0.6-0.5,1
			c-0.1,0.4-0.2,0.8-0.2,1.2c0,0.4,0.1,0.8,0.2,1.2c0.1,0.4,0.3,0.7,0.5,1c0.2,0.3,0.5,0.5,0.8,0.6c0.3,0.2,0.7,0.2,1.1,0.2
			C49.9,33.1,50.3,33,50.6,32.8z M6.3,31.7c-0.1,0-0.3,0-0.4,0.1c-0.1,0.1-0.3,0.2-0.5,0.3c-0.2,0.1-0.3,0.3-0.1,0.4
			c0.2,0.1,0.4,0.2,0.4,0.2C6.1,32.9,6.3,33,6.3,33c0.1,0,0.3-0.1,0.6-0.3c0,0,0.2-0.1,0.4-0.2v0c0.2-0.1,0.1-0.3-0.1-0.4
			C7,32,6.8,31.9,6.7,31.8C6.6,31.7,6.4,31.7,6.3,31.7z M17.5,33c0.2,0,0.4,0,0.5,0c0.1,0,0.2,0,0.3,0c0.1,0,0.2,0,0.3,0l1-4l0.9,4
			c0.2,0,0.5,0,0.7,0c0.2,0,0.4,0,0.6,0l1.4-5.9c-0.1,0-0.2,0-0.3,0c-0.1,0-0.2,0-0.3,0c-0.2,0-0.4,0-0.5,0l-0.8,4.6L20.3,27
			c-0.2,0-0.4,0-0.5,0c-0.1,0-0.2,0-0.3,0c-0.1,0-0.2,0-0.3,0l-1,4.5L17.3,27c-0.1,0-0.2,0-0.3,0c-0.1,0-0.2,0-0.3,0
			c-0.3,0-0.5,0-0.7,0L17.5,33z M27.4,31.8L27,33c-0.2,0-0.4,0-0.6,0c-0.2,0-0.4,0-0.6,0l1.9-5.9c0.1,0,0.2,0,0.3,0
			c0.1,0,0.2,0,0.3,0c0.1,0,0.2,0,0.3,0c0.1,0,0.2,0,0.3,0l1.8,5.9c-0.2,0-0.4,0-0.7,0c-0.2,0-0.4,0-0.6,0l-0.3-1.2H27.4z M55.6,33
			c0.1,0,0.2,0,0.3,0s0.2,0,0.3,0c0.1,0,0.2,0,0.3,0c0.1,0,0.2,0,0.3,0v-5c0.1,0,0.2,0,0.3,0c0.3,0,0.6,0.1,0.8,0.2
			c0.2,0.2,0.3,0.4,0.3,0.8c0,0.2,0,0.3-0.1,0.5c-0.1,0.1-0.2,0.2-0.3,0.3c-0.1,0.1-0.2,0.2-0.3,0.2c-0.1,0.1-0.2,0.1-0.3,0.1
			L57,30.2l1.5,2.8c0.2,0,0.4,0,0.6,0c0.1,0,0.2,0,0.4,0c0.1,0,0.2,0,0.3,0l-1.4-2.5l0.1-0.1c0.1-0.1,0.2-0.1,0.3-0.2
			c0.1-0.1,0.2-0.2,0.3-0.3c0.1-0.1,0.2-0.3,0.2-0.4c0.1-0.2,0.1-0.4,0.1-0.6c0-0.4-0.1-0.7-0.2-0.9c-0.1-0.2-0.3-0.4-0.6-0.6
			c-0.2-0.1-0.5-0.2-0.8-0.3c-0.3-0.1-0.6-0.1-0.9-0.1c-0.3,0-0.5,0-0.7,0c-0.2,0-0.4,0-0.7,0.1V33z M37.4,33h-3.2V27
			c0.2,0,0.4,0,0.6,0c0.2,0,0.4,0,0.6,0v4.9h2c0,0.1,0,0.2,0,0.3c0,0.1,0,0.2,0,0.2c0,0.1,0,0.2,0,0.3C37.4,32.8,37.4,32.9,37.4,33z
			 M44,33h-3.2V27c0.2,0,0.4,0,0.6,0c0.2,0,0.4,0,0.6,0v4.9h2c0,0.1,0,0.2,0,0.3c0,0.1,0,0.2,0,0.2c0,0.1,0,0.2,0,0.3
			C44,32.8,44,32.9,44,33z M48.2,30c0-1.4,0.4-2,1.3-2c0.4,0,0.7,0.2,1,0.5c0.2,0.3,0.3,0.9,0.3,1.5c0,1.4-0.4,2-1.3,2
			C48.6,32,48.2,31.4,48.2,30L48.2,30z M6.3,29.6c0.2,0,0.4,0,0.6-0.1l0.7-0.2c0.1,0,0.2,0,0.2,0.1c0,0.2,0,0.3-0.1,0.4l-1.1,0.8
			c-0.1,0.1-0.2,0.2-0.2,0.3c0.1,0.4,0.4,0.7,0.9,0.9c0,0,0.1,0,0.1,0c0.2,0,0.5,0.1,0.8-0.2c0,0,0.2-0.2,0.2-0.2
			c0.4-0.4,0.8-0.8,1.1-1.3c0.2-0.3,0.4-0.7,0.6-1c0.2-0.5,0.4-1.1,0.4-1.8c0,0,0-0.5,0-0.7c-0.1-0.8-0.4-1.3-0.8-1.7
			C9.6,25,9.5,25,9.3,24.9c-0.1-0.1-0.3-0.1-0.4-0.1c-0.3-0.1-0.6-0.1-0.9,0h0c-0.1,0-0.2,0-0.3,0c-0.7,0.1-1.2,0.4-1.4,0.5v0
			c0,0,0,0,0,0c0,0,0,0,0,0l0,0h0l0,0l0,0l0,0v0c-0.2-0.1-0.7-0.4-1.4-0.5c-0.1,0-0.2,0-0.3,0h0c-0.3,0-0.6,0-0.9,0
			c-0.1,0-0.3,0.1-0.4,0.1C3.2,25,3.1,25,3,25.1c-0.4,0.3-0.6,0.8-0.8,1.7c0,0.2,0,0.7,0,0.7c0,0.6,0.1,1.2,0.4,1.8
			c0.1,0.4,0.3,0.7,0.6,1c0.3,0.5,0.7,0.9,1.1,1.3c0,0,0.3,0.2,0.3,0.2C4.8,32,5.1,32,5.3,32c0,0,0.1,0,0.1,0
			c0.5-0.2,0.8-0.5,0.9-0.9c0-0.1-0.1-0.2-0.2-0.3h0L5,29.9c-0.1-0.1-0.2-0.3-0.1-0.4v0c0-0.1,0.1-0.2,0.2-0.1l0.7,0.2
			C5.9,29.6,6.1,29.6,6.3,29.6z M29.1,30.8l-0.7-2.5l-0.7,2.5H29.1z M3.9,26.8c-0.1,0-0.1,0.1-0.1,0.2c0,0.1,0,0.1,0,0.1
			c0,0.1,0.1,0.1,0.1,0.1c1.7,0.6,1.4,1.2,1.4,1.2s0.3-0.4,0.4-0.7h0c0-0.2,0.1-0.3,0.1-0.5c0-0.1-0.1-0.2-0.2-0.2
			C5.1,26.8,4.5,26.7,3.9,26.8z M6.9,27.7C6.9,27.7,6.9,27.7,6.9,27.7C7,28,7.3,28.4,7.3,28.4s-0.2-0.6,1.4-1.2
			c0.1,0,0.1-0.1,0.1-0.1c0,0,0-0.1,0-0.1c0-0.1,0-0.2-0.1-0.2c-0.6-0.1-1.3,0-1.8,0.2c-0.1,0-0.2,0.1-0.2,0.2
			C6.8,27.4,6.8,27.5,6.9,27.7z"/>
	</defs>
	<clipPath id="SVGID_2_">
		<use xlink:href="#SVGID_1_"  overflow="visible"/>
	</clipPath>
	<g clip-path="url(#SVGID_2_)">
		<g transform="matrix(0.239572,0,0,0.237338,-1340.21,2523.31)">
			<path fill="none" d="M5667.1-10492.9c0.8,0.1,1.6,0.2,2.3,0.2c0.5,0,1,0,1.4-0.1c0.4,0,0.9-0.1,1.5-0.1l4.2-16.7l3.9,16.7
				c1,0.1,2,0.2,2.8,0.2c0.9,0,1.7-0.1,2.6-0.2l5.9-25c-0.4,0-0.8-0.1-1.3-0.1c-0.4,0-0.9-0.1-1.3-0.1c-0.8,0-1.5,0.1-2.2,0.2
				l-3.5,19.3l-4.4-19.3c-0.8-0.1-1.5-0.2-2.2-0.2c-0.4,0-0.8,0-1.2,0.1c-0.4,0-0.8,0.1-1.3,0.2l-4.2,18.8l-3.5-18.8
				c-0.4-0.1-0.8-0.2-1.2-0.2c-0.4,0-0.8,0-1.2,0c-1,0-2,0.1-2.8,0.2L5667.1-10492.9z"/>
		</g>
		<g transform="matrix(0.239572,0,0,0.237338,-1340.21,2523.31)">
			<path fill="none" d="M5702.2-10492.9c0.8,0.1,1.7,0.2,2.5,0.2c0.8,0,1.5-0.1,2.4-0.2l1.4-5h8.1l1.4,5c0.8,0.1,1.7,0.2,2.5,0.2
				c0.9,0,1.8-0.1,2.7-0.2l-7.7-25c-0.5-0.1-1-0.1-1.4-0.2c-0.4,0-0.9-0.1-1.3-0.1c-0.5,0-1,0-1.4,0.1c-0.4,0-0.9,0.1-1.4,0.2
				L5702.2-10492.9z M5709.6-10502.1l3-10.5l2.8,10.5H5709.6z"/>
		</g>
		<g transform="matrix(0.239572,0,0,0.237338,-1340.21,2523.31)">
			<path fill="none" d="M5736.9-10492.9h13.4c0.1-0.4,0.1-0.8,0.1-1.1c0-0.4,0-0.7,0-1.1c0-0.3,0-0.7,0-1c0-0.4-0.1-0.7-0.1-1.1
				h-8.5v-20.7c-0.9-0.1-1.7-0.2-2.5-0.2c-0.8,0-1.6,0.1-2.4,0.2V-10492.9z"/>
		</g>
		<g transform="matrix(0.239572,0,0,0.237338,-1340.21,2523.31)">
			<path fill="none" d="M5764.3-10492.9h13.4c0.1-0.4,0.1-0.8,0.1-1.1c0-0.4,0-0.7,0-1.1c0-0.3,0-0.7,0-1c0-0.4-0.1-0.7-0.1-1.1
				h-8.5v-20.7c-0.9-0.1-1.7-0.2-2.5-0.2c-0.8,0-1.6,0.1-2.4,0.2V-10492.9z"/>
		</g>
		<g transform="matrix(0.239572,0,0,0.237338,-1340.21,2523.31)">
			<path fill="none" d="M5805.5-10493.4c1.3-0.6,2.5-1.5,3.3-2.7s1.5-2.5,1.9-4.1c0.4-1.6,0.6-3.3,0.6-5.1c0-1.9-0.2-3.6-0.6-5.2
				c-0.4-1.6-1.1-3-1.9-4.1c-0.9-1.2-2-2.1-3.3-2.7c-1.3-0.7-2.9-1-4.8-1c-1.8,0-3.4,0.3-4.8,1c-1.3,0.7-2.5,1.6-3.3,2.7
				c-0.9,1.2-1.5,2.5-1.9,4.1c-0.4,1.6-0.6,3.3-0.6,5.2c0,1.9,0.2,3.6,0.6,5.1s1.1,2.9,1.9,4.1c0.9,1.1,2,2,3.3,2.7
				c1.3,0.6,2.9,1,4.8,1C5802.5-10492.4,5804.1-10492.8,5805.5-10493.4z M5795.3-10505.3c0-5.8,1.8-8.6,5.4-8.6c1.8,0,3.1,0.7,4,2.2
				c0.9,1.4,1.3,3.6,1.3,6.5c0,5.8-1.8,8.6-5.3,8.6C5797.1-10496.7,5795.3-10499.6,5795.3-10505.3L5795.3-10505.3z"/>
		</g>
		<g transform="matrix(0.239572,0,0,0.237338,-1340.21,2523.31)">
			<path fill="none" d="M5826.2-10492.9c0.5,0.1,0.9,0.1,1.3,0.1c0.4,0,0.8,0,1.2,0c0.4,0,0.8,0,1.2-0.1c0.4,0,0.8-0.1,1.2-0.1
				v-21.1c0.4-0.1,0.9-0.1,1.4-0.1c1.3,0,2.4,0.3,3.2,1c0.8,0.7,1.2,1.8,1.2,3.2c0,0.7-0.1,1.4-0.4,1.9c-0.3,0.5-0.7,1-1.1,1.4
				s-0.9,0.7-1.3,1c-0.5,0.3-0.8,0.5-1.2,0.6l-0.8,0.4l6.4,11.6c0.8,0.1,1.7,0.2,2.6,0.2c0.5,0,1,0,1.5-0.1c0.5,0,1-0.1,1.4-0.1
				l-6-10.6l0.6-0.4c0.4-0.2,0.8-0.5,1.2-0.9c0.4-0.4,0.8-0.8,1.1-1.4c0.4-0.5,0.6-1.2,0.9-1.9c0.2-0.7,0.3-1.5,0.3-2.5
				c0-1.6-0.3-2.8-0.9-3.8c-0.6-1-1.4-1.8-2.4-2.4c-1-0.6-2.1-1-3.3-1.2c-1.2-0.2-2.5-0.3-3.7-0.3c-1.1,0-2,0-2.9,0.1
				c-0.9,0.1-1.8,0.2-2.8,0.3V-10492.9z"/>
		</g>
	</g>
</g>
</svg>
