<?xml version="1.0" encoding="utf-8"?>
<!-- Generator: Adobe Illustrator 18.0.0, SVG Export Plug-In . SVG Version: 6.00 Build 0)  -->
<!DOCTYPE svg PUBLIC "-//W3C//DTD SVG 1.1//EN" "http://www.w3.org/Graphics/SVG/1.1/DTD/svg11.dtd">
<svg version="1.1" xmlns="http://www.w3.org/2000/svg" xmlns:xlink="http://www.w3.org/1999/xlink" x="0px" y="0px"
	 viewBox="0 0 180 120" enable-background="new 0 0 180 120" xml:space="preserve">
<g id="Top_-_starting">
</g>
<g id="Ar_presentation_Vid">
</g>
<g id="_x23__x23__x23__x23__x23__x23_Join_us_on___-_normal">
</g>
<g id="Smart_Tracking">
	<g id="Layer_23">
	</g>
</g>
<g id="Smart_Planner">
</g>
<g id="Global_Gps">
</g>
<g id="Smart_alerts">
</g>
<g id="_x23__x23__x23__x23__x23__x23_Join_us_on___-_normal_1_">
</g>
<g id="Wallet_-_premium_leather_-slim" display="none">
</g>
<g id="fam_of_products">
</g>
<g id="RFID">
</g>
<g id="Wireless_charging">
</g>
<g id="_x23__x23__x23__x23__x23__x23_Join_us_on___-_normal_copy_2">
</g>
<g id="Detachable_Powerbank">
</g>
<g id="money_shot">
	<g>
		<circle fill="#69C5CF" cx="148.7" cy="60" r="25"/>
		<g>
			<g>
				<path d="M105.4,68.7c-0.9,0-1.7-0.8-1.7-1.7V59c0-0.9,0.8-1.7,1.7-1.7s1.7,0.8,1.7,1.7V67C107.1,68,106.4,68.7,105.4,68.7z"/>
				<path d="M113.4,68.7c-0.9,0-1.7-0.8-1.7-1.7v-4.5c0-0.9,0.8-1.7,1.7-1.7s1.7,0.8,1.7,1.7V67C115.1,68,114.3,68.7,113.4,68.7z"/>
				<path d="M121.4,68.7c-0.9,0-1.7-0.8-1.7-1.7V59c0-0.9,0.8-1.7,1.7-1.7s1.7,0.8,1.7,1.7V67C123.1,68,122.3,68.7,121.4,68.7z"/>
				<path d="M129.3,68.7c-0.9,0-1.7-0.8-1.7-1.7v-4.5c0-0.9,0.8-1.7,1.7-1.7c0.9,0,1.7,0.8,1.7,1.7V67C131,68,130.3,68.7,129.3,68.7
					z"/>
				<path d="M137.3,68.7c-0.9,0-1.7-0.8-1.7-1.7V59c0-0.9,0.8-1.7,1.7-1.7S139,58,139,59V67C139,68,138.2,68.7,137.3,68.7z"/>
				<path d="M145.3,68.7c-0.9,0-1.7-0.8-1.7-1.7v-4.5c0-0.9,0.8-1.7,1.7-1.7s1.7,0.8,1.7,1.7V67C146.9,68,146.2,68.7,145.3,68.7z"/>
				<path d="M14.3,72.9c-0.9,0-1.7-0.8-1.7-1.7v-8.1c0-0.9,0.8-1.7,1.7-1.7s1.7,0.8,1.7,1.7v8.1C16,72.1,15.3,72.9,14.3,72.9z"/>
				<path d="M22.3,74.7c-0.9,0-1.7-0.8-1.7-1.7v-6.3c0-0.9,0.8-1.7,1.7-1.7s1.7,0.8,1.7,1.7V73C24,73.9,23.2,74.7,22.3,74.7z"/>
				<path d="M30.3,74.8c-0.9,0-1.7-0.8-1.7-1.7V61.4c0-0.9,0.8-1.7,1.7-1.7s1.7,0.8,1.7,1.7v11.6C32,74,31.2,74.8,30.3,74.8z"/>
				<path d="M38.2,76.5c-0.9,0-1.7-0.8-1.7-1.7v-8.1c0-0.9,0.8-1.7,1.7-1.7s1.7,0.8,1.7,1.7v8.1C39.9,75.7,39.2,76.5,38.2,76.5z"/>
				<path d="M46.2,76.5c-0.9,0-1.7-0.8-1.7-1.7V63.1c0-0.9,0.8-1.7,1.7-1.7s1.7,0.8,1.7,1.7v11.6C47.9,75.7,47.1,76.5,46.2,76.5z"/>
				<path d="M54.1,76.5c-0.9,0-1.7-0.8-1.7-1.7v-8.1c0-0.9,0.8-1.7,1.7-1.7s1.7,0.8,1.7,1.7v8.1C55.8,75.7,55.1,76.5,54.1,76.5z"/>
				<path d="M63.6,76.5c-0.9,0-1.7-0.8-1.7-1.7V63.1c0-0.9,0.8-1.7,1.7-1.7c0.9,0,1.7,0.8,1.7,1.7v11.6
					C65.3,75.7,64.6,76.5,63.6,76.5z"/>
				<path d="M71.6,76.5c-0.9,0-1.7-0.8-1.7-1.7v-8.1c0-0.9,0.8-1.7,1.7-1.7c0.9,0,1.7,0.8,1.7,1.7v8.1
					C73.3,75.7,72.5,76.5,71.6,76.5z"/>
				<path d="M79.5,74.2c-0.9,0-1.7-0.8-1.7-1.7V60.9c0-0.9,0.8-1.7,1.7-1.7c0.9,0,1.7,0.8,1.7,1.7v11.6
					C81.2,73.5,80.5,74.2,79.5,74.2z"/>
				<path d="M87.5,74.7c-0.9,0-1.7-0.8-1.7-1.7v-6.3c0-0.9,0.8-1.7,1.7-1.7s1.7,0.8,1.7,1.7V73C89.2,73.9,88.4,74.7,87.5,74.7z"/>
				<path d="M53,55.4c-7.8,0-46.7-0.4-46.7-7.7c0-7.3,38.9-7.7,46.7-7.7s46.7,0.4,46.7,7.7C99.7,55.1,60.8,55.4,53,55.4z M10.2,47.8
					C13.5,49.6,29.3,52,53,52s39.5-2.4,42.9-4.3c-3.4-1.9-19.2-4.3-42.9-4.3S13.5,45.9,10.2,47.8z"/>
				<g>
					<path fill="none" d="M32,46"/>
				</g>
				<polygon points="161,69.5 97.9,69.5 97.9,66.1 157.6,66.1 157.6,52.9 99,52.9 99,49.5 161,49.5 				"/>
				<rect x="151.2" y="51.2" width="3.4" height="16.6"/>
				<path d="M53,76.9c-7.8,0-46.7-0.4-46.7-7.7V47.8h3.4V69c2.1,1.9,18.4,4.6,43.3,4.6s41.1-2.7,43.3-4.6V47.8h3.4v21.5
					C99.7,76.6,60.8,76.9,53,76.9z"/>
				<path d="M51.7,49.5c-9.2,0-9.9-0.3-9.9-2.1s0.7-2.1,9.9-2.1s9.9,0.3,9.9,2.1S60.9,49.5,51.7,49.5z"/>
			</g>
		</g>
	</g>
</g>
<g id="_x23__x23__x23__x23__x23__x23_Join_us_on___-_normal_copy_3">
</g>
<g id="footer">
</g>
<g id="Top_-_starting_-_tablet">
</g>
<g id="Ar_presentation_vid_-_tablet">
</g>
<g id="_x23__x23__x23__x23__x23__x23_Join_us_on___-_normal_copy_1_">
</g>
<g id="Top_-_starting_-_mobile">
</g>
<g id="Ar_presentation_vid_-_mobile">
</g>
<g id="_x23__x23__x23__x23__x23__x23_Join_us_on___-_short_-__Mobile">
</g>
<g id="general_guides">
</g>
</svg>
