<?xml version="1.0" encoding="utf-8"?>
<!-- Generator: Adobe Illustrator 18.0.0, SVG Export Plug-In . SVG Version: 6.00 Build 0)  -->
<!DOCTYPE svg PUBLIC "-//W3C//DTD SVG 1.1//EN" "http://www.w3.org/Graphics/SVG/1.1/DTD/svg11.dtd">
<svg version="1.1" xmlns="http://www.w3.org/2000/svg" xmlns:xlink="http://www.w3.org/1999/xlink" x="0px" y="0px"
	 viewBox="0 0 180 120" enable-background="new 0 0 180 120" xml:space="preserve">
<g id="Top_-_starting">
</g>
<g id="Ar_presentation_Vid">
</g>
<g id="_x23__x23__x23__x23__x23__x23_Join_us_on___-_normal">
</g>
<g id="Smart_Tracking">
	<g id="Layer_23">
	</g>
</g>
<g id="Smart_Planner">
</g>
<g id="Global_Gps">
</g>
<g id="Smart_alerts">
</g>
<g id="_x23__x23__x23__x23__x23__x23_Join_us_on___-_normal_1_">
</g>
<g id="Wallet_-_premium_leather_-slim" display="none">
</g>
<g id="fam_of_products">
</g>
<g id="RFID">
</g>
<g id="Wireless_charging">
</g>
<g id="_x23__x23__x23__x23__x23__x23_Join_us_on___-_normal_copy_2">
</g>
<g id="Detachable_Powerbank">
</g>
<g id="money_shot">
	<g>
		<circle fill="#69C5CF" cx="70" cy="70.5" r="25"/>
		<g>
			<path fill="#001427" d="M139.6,66.3c-0.6-1.6-1.9-2.8-3.7-3.5c0-1.2-0.4-2.4-1.2-3.5c-1.6-2.2-4.4-3.6-7.3-3.6h-2.4
				c-0.8-3.3-3.6-6.2-8-6.2c-0.4,0-1.4-0.1-2.8-0.2c-9.3-0.9-18.5-1.4-23,0.4c-1.5,0.6-3,1.5-4.8,2.5c-4.6,2.5-10.2,5.7-17.3,5.7H40
				V62h29.1c8.2,0,14.6-3.6,19.3-6.2c1.7-0.9,3.1-1.7,4.3-2.2c4.1-1.7,16-0.6,21-0.1c1.8,0.2,2.7,0.2,3.2,0.2c2,0,3.1,1,3.6,2.1
				h-16.1c-1.2,0-2.1,0.9-2.1,2.1c0,1.2,0.9,2.1,2.1,2.1h22.9c1.6,0,3.1,0.7,3.9,1.8c0.1,0.1,0.1,0.2,0.2,0.3h-24.9
				c-1.2,0-2.1,0.9-2.1,2.1s0.9,2.1,2.1,2.1h25c2.6,0,3.9,0.9,4.2,1.7c0.2,0.4,0.1,1-0.2,1.5c-1-0.7-2.4-1.1-4-1.1h-22.9
				c-1.1,0-2.1,0.9-2.1,2.1c0,1.2,0.9,2.1,2.1,2.1h22.9c1.9,0,2.6,1.1,2.6,2.1c0,0.5-0.2,1-0.6,1.4c-0.5,0.5-1.2,0.7-2,0.7h-22.9
				c-2.4,0-12.8,2.5-12.8,7.5c0,2.8,3.1,2.8,7.7,2.8c1.1,0,2.1,0,2.8,0.1c0.6,0.1,1.2-0.1,2.3-0.3c1.9-0.4,6-1.1,7.5,0.1
				c0.1,0.1,0.5,0.4,0.7,1.2c-2.8,1.1-10.9,3.1-12.4,3.1c-7.4,0-13.3-0.7-15.7-1.9c-4.2-2-18.5-6.2-19.1-6.4c-0.2-0.1-0.4,0-0.6,0v0
				H40v4.2h28.8c2,0.6,14.5,4.3,18.1,6c4.1,2,12.8,2.3,17.6,2.3c0.2,0,16.7-2.3,16.7-6.2c0-2.4-0.8-4.2-2.3-5.4c-3.1-2.5-8-1.6-11-1
				c-0.6,0.1-1,0.2-1.1,0.2c-0.8-0.1-1.9-0.1-3.2-0.1c-0.4,0-1,0-1.5,0c2-1,5-2,6.6-2h22.9c4.4,0,6.8-3.1,6.8-6.2
				c0-0.5-0.1-1.1-0.2-1.6C139.9,70.8,140.5,68.4,139.6,66.3z"/>
			<path fill="#001427" d="M60.8,53.6c-0.4,0-0.9-0.1-1.2-0.4c-0.9-0.7-1.1-2-0.4-2.9c2.4-3.2,6-5,10-5c4,0,7.6,1.8,10,5
				c0.7,0.9,0.5,2.2-0.4,2.9c-0.9,0.7-2.2,0.5-2.9-0.4c-1.6-2.1-4-3.3-6.7-3.3c-2.6,0-5.1,1.2-6.7,3.3
				C62.1,53.4,61.4,53.6,60.8,53.6z"/>
			<path fill="#001427" d="M85.8,47.4c-0.6,0-1.3-0.3-1.7-0.8c-3.6-4.8-9-7.5-15-7.5c-5.9,0-11.4,2.7-15,7.5c-0.7,0.9-2,1.1-2.9,0.4
				c-0.9-0.7-1.1-2-0.4-2.9c4.4-5.8,11.1-9.2,18.3-9.2c7.3,0,13.9,3.3,18.3,9.2C88.1,45,88,46.3,87,47
				C86.7,47.3,86.2,47.4,85.8,47.4z"/>
			<path fill="#001427" d="M94.1,41.2c-0.6,0-1.3-0.3-1.7-0.8c-5.6-7.4-14.1-11.7-23.3-11.7c-9.2,0-17.7,4.2-23.3,11.7
				c-0.7,0.9-2,1.1-2.9,0.4c-0.9-0.7-1.1-2-0.4-2.9c6.4-8.5,16.1-13.3,26.6-13.3c10.6,0,20.3,4.9,26.6,13.3c0.7,0.9,0.5,2.2-0.4,2.9
				C95,41,94.6,41.2,94.1,41.2z"/>
			<path fill="#001427" d="M69.1,91.1c-2.3,0-4.2-1.9-4.2-4.2V57.8c0-2.3,1.9-4.2,4.2-4.2c2.3,0,4.2,1.9,4.2,4.2v29.1
				C73.3,89.2,71.4,91.1,69.1,91.1z"/>
		</g>
	</g>
</g>
<g id="_x23__x23__x23__x23__x23__x23_Join_us_on___-_normal_copy_3">
</g>
<g id="footer">
</g>
<g id="Top_-_starting_-_tablet">
</g>
<g id="Ar_presentation_vid_-_tablet">
</g>
<g id="_x23__x23__x23__x23__x23__x23_Join_us_on___-_normal_copy_1_">
</g>
<g id="Top_-_starting_-_mobile">
</g>
<g id="Ar_presentation_vid_-_mobile">
</g>
<g id="_x23__x23__x23__x23__x23__x23_Join_us_on___-_short_-__Mobile">
</g>
<g id="general_guides">
</g>
</svg>
