<?xml version="1.0" encoding="utf-8"?>
<!-- Generator: Adobe Illustrator 18.0.0, SVG Export Plug-In . SVG Version: 6.00 Build 0)  -->
<!DOCTYPE svg PUBLIC "-//W3C//DTD SVG 1.1//EN" "http://www.w3.org/Graphics/SVG/1.1/DTD/svg11.dtd">
<svg version="1.1" xmlns="http://www.w3.org/2000/svg" xmlns:xlink="http://www.w3.org/1999/xlink" x="0px" y="0px"
	 viewBox="0 0 180 120" enable-background="new 0 0 180 120" xml:space="preserve">
<g id="Top_-_starting">
</g>
<g id="Ar_presentation_Vid">
</g>
<g id="_x23__x23__x23__x23__x23__x23_Join_us_on___-_normal">
</g>
<g id="Smart_Tracking">
	<g id="Layer_23">
	</g>
</g>
<g id="Smart_Planner">
</g>
<g id="Global_Gps">
</g>
<g id="Smart_alerts">
</g>
<g id="_x23__x23__x23__x23__x23__x23_Join_us_on___-_normal_1_">
</g>
<g id="Wallet_-_premium_leather_-slim" display="none">
</g>
<g id="fam_of_products">
</g>
<g id="RFID">
</g>
<g id="Wireless_charging">
</g>
<g id="_x23__x23__x23__x23__x23__x23_Join_us_on___-_normal_copy_2">
</g>
<g id="Detachable_Powerbank">
</g>
<g id="money_shot">
	<g>
		<circle fill="#69C5CF" cx="68.5" cy="44.3" r="25"/>
		<g>
			<g>
				<g>
					<path d="M68.2,43c-0.6,0-1.1-0.4-1.2-0.9c-0.1-0.3-2.7-8.1-2.7-12.2c0-2.2,1.8-3.9,3.9-3.9s3.9,1.8,3.9,3.9
						c0,4.1-2.6,11.9-2.7,12.2C69.3,42.6,68.8,43,68.2,43z M68.2,28.5c-0.7,0-1.3,0.6-1.3,1.3c0,1.9,0.7,4.8,1.3,7.2
						c0.6-2.4,1.3-5.3,1.3-7.2C69.6,29.1,69,28.5,68.2,28.5z"/>
				</g>
				<g>
					<path d="M68.2,100.7c-0.7,0-1.3-0.6-1.3-1.3V41.6c0-0.7,0.6-1.3,1.3-1.3s1.3,0.6,1.3,1.3v57.7C69.6,100.1,69,100.7,68.2,100.7z
						"/>
				</g>
				<g>
					<path d="M131.2,37.7c-0.2,0-0.3,0-0.5-0.1c-0.7-0.3-1-1.1-0.7-1.7l3.2-7.4H92.6l3.2,7.4c0.3,0.7,0,1.4-0.7,1.7
						c-0.7,0.3-1.4,0-1.7-0.7l-3.9-9.2c-0.2-0.4-0.1-0.9,0.1-1.2c0.2-0.4,0.7-0.6,1.1-0.6h44.6c0.4,0,0.9,0.2,1.1,0.6
						c0.2,0.4,0.3,0.8,0.1,1.2l-3.9,9.2C132.2,37.4,131.8,37.7,131.2,37.7z"/>
				</g>
				<g>
					<path d="M135.2,100.7H90.6c-0.4,0-0.9-0.2-1.1-0.6c-0.2-0.4-0.3-0.8-0.1-1.2l3.9-9.2c0.3-0.7,1.1-1,1.7-0.7
						c0.7,0.3,1,1.1,0.7,1.7l-3.2,7.4h40.6l-3.2-7.4c-0.3-0.7,0-1.4,0.7-1.7c0.7-0.3,1.4,0,1.7,0.7l3.9,9.2c0.2,0.4,0.1,0.9-0.1,1.2
						C136,100.5,135.6,100.7,135.2,100.7z"/>
				</g>
				<g>
					<path d="M94.5,91.5c-0.7,0-1.3-0.6-1.3-1.3V36.4c0-0.7,0.6-1.3,1.3-1.3s1.3,0.6,1.3,1.3v53.8C95.8,90.9,95.2,91.5,94.5,91.5z"
						/>
				</g>
				<g>
					<path d="M131.2,91.5c-0.7,0-1.3-0.6-1.3-1.3V36.4c0-0.7,0.6-1.3,1.3-1.3s1.3,0.6,1.3,1.3v53.8C132.6,90.9,132,91.5,131.2,91.5z
						"/>
				</g>
				<g>
					<path d="M131.2,37.7H94.5c-0.7,0-1.3-0.6-1.3-1.3s0.6-1.3,1.3-1.3h36.7c0.7,0,1.3,0.6,1.3,1.3S132,37.7,131.2,37.7z"/>
				</g>
				<g>
					<path d="M131.2,91.5H94.5c-0.7,0-1.3-0.6-1.3-1.3s0.6-1.3,1.3-1.3h36.7c0.7,0,1.3,0.6,1.3,1.3S132,91.5,131.2,91.5z"/>
				</g>
				<g>
					<path d="M132.6,43H81.4c-0.7,0-1.3-0.6-1.3-1.3s0.6-1.3,1.3-1.3h51.2c0.7,0,1.3,0.6,1.3,1.3S133.3,43,132.6,43z"/>
				</g>
				<g>
					<path d="M132.6,46.9H93.2c-0.7,0-1.3-0.6-1.3-1.3c0-0.7,0.6-1.3,1.3-1.3h39.4c0.7,0,1.3,0.6,1.3,1.3
						C133.9,46.3,133.3,46.9,132.6,46.9z"/>
				</g>
				<g>
					<path d="M132.6,50.8H93.2c-0.7,0-1.3-0.6-1.3-1.3s0.6-1.3,1.3-1.3h39.4c0.7,0,1.3,0.6,1.3,1.3S133.3,50.8,132.6,50.8z"/>
				</g>
				<g>
					<path d="M132.6,54.8H93.2c-0.7,0-1.3-0.6-1.3-1.3c0-0.7,0.6-1.3,1.3-1.3h39.4c0.7,0,1.3,0.6,1.3,1.3
						C133.9,54.2,133.3,54.8,132.6,54.8z"/>
				</g>
				<g>
					<path d="M132.6,58.7H93.2c-0.7,0-1.3-0.6-1.3-1.3s0.6-1.3,1.3-1.3h39.4c0.7,0,1.3,0.6,1.3,1.3S133.3,58.7,132.6,58.7z"/>
				</g>
				<g>
					<path d="M132.6,62.6H93.2c-0.7,0-1.3-0.6-1.3-1.3c0-0.7,0.6-1.3,1.3-1.3h39.4c0.7,0,1.3,0.6,1.3,1.3
						C133.9,62.1,133.3,62.6,132.6,62.6z"/>
				</g>
				<g>
					<path d="M132.6,66.6H93.2c-0.7,0-1.3-0.6-1.3-1.3c0-0.7,0.6-1.3,1.3-1.3h39.4c0.7,0,1.3,0.6,1.3,1.3
						C133.9,66,133.3,66.6,132.6,66.6z"/>
				</g>
				<g>
					<path d="M132.6,70.5H93.2c-0.7,0-1.3-0.6-1.3-1.3s0.6-1.3,1.3-1.3h39.4c0.7,0,1.3,0.6,1.3,1.3S133.3,70.5,132.6,70.5z"/>
				</g>
				<g>
					<path d="M132.6,74.5H93.2c-0.7,0-1.3-0.6-1.3-1.3s0.6-1.3,1.3-1.3h39.4c0.7,0,1.3,0.6,1.3,1.3S133.3,74.5,132.6,74.5z"/>
				</g>
				<g>
					<path d="M132.6,78.4H93.2c-0.7,0-1.3-0.6-1.3-1.3s0.6-1.3,1.3-1.3h39.4c0.7,0,1.3,0.6,1.3,1.3S133.3,78.4,132.6,78.4z"/>
				</g>
				<g>
					<path d="M132.6,82.3H93.2c-0.7,0-1.3-0.6-1.3-1.3c0-0.7,0.6-1.3,1.3-1.3h39.4c0.7,0,1.3,0.6,1.3,1.3
						C133.9,81.7,133.3,82.3,132.6,82.3z"/>
				</g>
				<g>
					<path d="M132.6,86.3H93.2c-0.7,0-1.3-0.6-1.3-1.3s0.6-1.3,1.3-1.3h39.4c0.7,0,1.3,0.6,1.3,1.3S133.3,86.3,132.6,86.3z"/>
				</g>
				<g>
					<path d="M81.4,32.5H53.8c-0.7,0-1.3-0.6-1.3-1.3c0-0.7,0.6-1.3,1.3-1.3h27.6c0.7,0,1.3,0.6,1.3,1.3
						C82.7,31.9,82.1,32.5,81.4,32.5z"/>
				</g>
				<g>
					<path d="M81.4,43c-2.2,0-3.9-1.8-3.9-3.9s1.8-3.9,3.9-3.9c0.7,0,1.3,0.6,1.3,1.3s-0.6,1.3-1.3,1.3c-0.7,0-1.3,0.6-1.3,1.3
						c0,0.7,0.6,1.3,1.3,1.3c0.7,0,1.3,0.6,1.3,1.3S82.1,43,81.4,43z"/>
				</g>
				<g>
					<path d="M81.4,37.7c-0.7,0-1.3-0.6-1.3-1.3s0.6-1.3,1.3-1.3c0.7,0,1.3-0.6,1.3-1.3c0-0.7-0.6-1.3-1.3-1.3
						c-0.7,0-1.3-0.6-1.3-1.3c0-0.7,0.6-1.3,1.3-1.3c2.2,0,3.9,1.8,3.9,3.9S83.5,37.7,81.4,37.7z"/>
				</g>
			</g>
		</g>
	</g>
</g>
<g id="_x23__x23__x23__x23__x23__x23_Join_us_on___-_normal_copy_3">
</g>
<g id="footer">
</g>
<g id="Top_-_starting_-_tablet">
</g>
<g id="Ar_presentation_vid_-_tablet">
</g>
<g id="_x23__x23__x23__x23__x23__x23_Join_us_on___-_normal_copy_1_">
</g>
<g id="Top_-_starting_-_mobile">
</g>
<g id="Ar_presentation_vid_-_mobile">
</g>
<g id="_x23__x23__x23__x23__x23__x23_Join_us_on___-_short_-__Mobile">
</g>
<g id="general_guides">
</g>
</svg>
