<?xml version="1.0" encoding="utf-8"?>
<!-- Generator: Adobe Illustrator 18.0.0, SVG Export Plug-In . SVG Version: 6.00 Build 0)  -->
<!DOCTYPE svg PUBLIC "-//W3C//DTD SVG 1.1//EN" "http://www.w3.org/Graphics/SVG/1.1/DTD/svg11.dtd">
<svg version="1.1" xmlns="http://www.w3.org/2000/svg" xmlns:xlink="http://www.w3.org/1999/xlink" x="0px" y="0px"
	 viewBox="0 0 175 51" enable-background="new 0 0 175 51" xml:space="preserve">
<g id="Top_-_starting">
</g>
<g id="Ar_presentation_Vid">
</g>
<g id="_x23__x23__x23__x23__x23__x23_Join_us_on___-_normal">
</g>
<g id="Smart_Tracking">
	<g id="Layer_23">
	</g>
</g>
<g id="Smart_Planner">
</g>
<g id="Global_Gps">
</g>
<g id="Smart_alerts">
</g>
<g id="_x23__x23__x23__x23__x23__x23_Join_us_on___-_normal_1_">
</g>
<g id="Wallet_-_premium_leather_-slim" display="none">
</g>
<g id="fam_of_products">
</g>
<g id="RFID">
</g>
<g id="Wireless_charging">
</g>
<g id="_x23__x23__x23__x23__x23__x23_Join_us_on___-_normal_copy_2">
</g>
<g id="Detachable_Powerbank">
</g>
<g id="money_shot">
</g>
<g id="_x23__x23__x23__x23__x23__x23_Join_us_on___-_normal_copy_3">
</g>
<g id="footer">
</g>
<g id="Top_-_starting_-_tablet">
</g>
<g id="Layer_26">
</g>
<g id="Ar_presentation_vid_-_tablet">
</g>
<g id="_x23__x23__x23__x23__x23__x23_Join_us_on___-_normal_copy_1_">
</g>
<g id="Top_-_starting_-_mobile">
	<g id="Hero__x3C_Clip_Group_x3E__2_">
		<defs>
			<rect id="SVGID_341_" x="-430" y="198" width="320" height="484"/>
		</defs>
		<clipPath id="SVGID_1_">
			<use xlink:href="#SVGID_341_"  overflow="visible"/>
		</clipPath>
		<g id="Hero__x3C_Clip_Group_x3E__3_" clip-path="url(#SVGID_1_)">
			<defs>
				<rect id="SVGID_344_" x="-740" y="72.2" width="943.5" height="644.6"/>
			</defs>
			<clipPath id="SVGID_3_">
				<use xlink:href="#SVGID_344_"  display="none" overflow="visible"/>
			</clipPath>
			<g clip-path="url(#SVGID_3_)">
				<defs>
					<rect id="SVGID_346_" x="-740" y="72.2" width="935.2" height="644.6"/>
				</defs>
				<clipPath id="SVGID_5_">
					<use xlink:href="#SVGID_346_"  overflow="visible"/>
				</clipPath>
				<g transform="matrix(1 0 0 1 0 3.051758e-05)" clip-path="url(#SVGID_5_)">
					
						<image overflow="visible" width="3951" height="3744" id="Layer_2_xA0_Image_1_" xlink:href="8677A8C99858D66E.png"  transform="matrix(0.272 0 0 0.272 -894.9057 -302.2556)">
					</image>
				</g>
			</g>
		</g>
	</g>
	<g id="logo-s_3_">
		<g id="Layer_1-2_11_">
			<path id="Wallor_6_" fill="#FFFFFF" d="M18.3,0h0.1c10.2-0.2,18.4,8.2,18.3,18.4c0,14.7-16.7,30.4-19.4,31.9v0.1l1-0.1l0.1,0.1
				l0,0v-0.1C16.7,48.8,0,33.1,0,18.4C0,8.2,8.1-0.1,18.3,0z M148.4,33c0.9-0.4,1.7-1.1,2.3-1.9c0.6-0.8,1.1-1.8,1.4-2.8
				c0.3-1.2,0.4-2.4,0.4-3.6c0-1.2-0.1-2.4-0.4-3.6c-0.3-1-0.7-2-1.3-2.9c-0.6-0.8-1.4-1.5-2.3-1.9c-2.2-0.9-4.6-0.9-6.7,0
				c-0.9,0.4-1.7,1.1-2.3,1.9c-0.6,0.9-1.1,1.8-1.4,2.9c-0.3,1.2-0.5,2.4-0.4,3.6c0,1.2,0.1,2.4,0.4,3.6c0.3,1,0.7,2,1.4,2.8
				c0.6,0.8,1.4,1.5,2.3,1.9C143.8,33.9,146.2,33.9,148.4,33L148.4,33z M18.3,30c-0.4,0-0.7,0.1-1,0.3c-0.4,0.3-0.9,0.6-1.4,0.8
				c-0.5,0.3-0.7,0.9-0.3,1.2c0.6,0.4,1.1,0.7,1.1,0.7c0.9,0.5,1.5,0.8,1.7,0.9c0.2-0.1,0.8-0.4,1.7-0.9c0.1,0,0.5-0.3,1-0.6l0,0
				c0.5-0.3,0.2-0.9-0.2-1.2c-0.5-0.2-1-0.5-1.4-0.8C19.1,30.1,18.7,30,18.3,30z M51.1,33.8c0.5,0.1,1.1,0.1,1.6,0.1
				c0.3,0,0.7,0,1-0.1l1-0.1l3-11.6l2.8,11.6c0.7,0.1,1.3,0.1,2,0.1c0.6,0,1.2,0,1.8-0.1l4.2-17.5l-0.9-0.1c-0.3,0-0.6,0-0.9,0
				c-0.5,0-1,0-1.5,0.1l-2.5,13.5l-3.1-13.5c-0.5-0.1-1-0.1-1.6-0.9h-0.8c-0.3,0.8-0.6,0.8-0.9,0.9l-3,13.2l-2.5-13.1
				c-0.3-0.1-0.6-0.1-0.9,0.2h-0.9c-0.6-0.3-1.3-0.3-1.9-0.2L51.1,33.8z M80.2,30.8l-1,3.6c-0.6,0.1-1.1,0.1-1.7,0.1
				c-0.6,0-1.2,0-1.8-0.1l5.5-17.7c0.3,0,0.7-0.1,1-0.1c0.3,0,0.7,0,1,0c0.4,0,0.7,0,1,0s0.7,0.1,1,0.1l5.5,17.7
				c-0.7,0.1-1.3,0.1-2,0.1c-0.6,0-1.2,0-1.8-0.1l-1-3.6H80.2z M162.5,34c0.3,0,0.6,0.1,0.9,0.1c0.3,0,0.6,0,0.8,0s0.5,0,0.8,0
				l0.8-0.1V19.3c0.3,0,0.6-0.1,0.9-0.1c0.8,0,1.5,0.2,2.1,0.7c0.6,0.6,0.9,1.4,0.8,2.2c0,0.5-0.1,0.9-0.3,1.3
				c-0.2,0.4-0.4,0.7-0.7,1c-0.3,0.3-0.6,0.5-0.9,0.6c-0.3,0.2-0.6,0.3-0.8,0.4l-0.5,0.3l4.3,8.1c0.6,0.1,1.1,0.1,1.7,0.1
				c0.3,0,0.7,0,1-0.1l1-0.1l-4-7.4l0.4-0.3c0.3-0.2,0.5-0.4,0.8-0.6c0.3-0.3,0.5-0.6,0.7-0.9c0.5-0.9,0.8-1.9,0.8-3
				c0-0.9-0.2-1.9-0.6-2.7c-0.4-0.7-0.9-1.3-1.6-1.7c-0.7-0.4-1.4-0.7-2.2-0.9c-0.8-0.2-1.6-0.2-2.4-0.2c-0.7,0-1.4,0-1.9,0.1
				c-0.6,0.1-1.2,0.1-1.9,0.2L162.5,34z M109.7,34.1h-9.8V16.6c0.5-0.1,1.1-0.1,1.6-0.1c0.6,0,1.1,0,1.7,0.1v14.2h6.5
				c0,0.3,0.1,0.6,0.1,0.8s0,0.5,0,0.8s0,0.6,0,0.8C109.8,33.5,109.7,33.8,109.7,34.1L109.7,34.1z M129.5,34.1h-9.8V16.6
				c0.5-0.1,1.1-0.1,1.6-0.1c0.6,0,1.1,0,1.7,0.1v14.2h6.5c0,0.3,0.1,0.6,0.1,0.8s0,0.5,0,0.8s0,0.6,0,0.8
				C129.5,33.5,129.5,33.8,129.5,34.1L129.5,34.1z M141.6,25.1c0-4,1.3-6,3.8-6c1.1-0.1,2.2,0.5,2.8,1.5c0.6,1,0.9,2.5,0.9,4.5
				c0,4-1.2,6-3.7,6C142.9,31.1,141.7,29.1,141.6,25.1L141.6,25.1z M18.4,24c0.6,0,1.1-0.1,1.7-0.2l1.9-0.5c0.3-0.1,0.6,0.1,0.7,0.4
				c0.1,0.5-0.1,0.9-0.4,1.2l-3.2,2.4c-0.2,0.3-0.6,0.4-0.5,0.8c0.3,1.2,1.1,2.1,2.6,2.7l0.3,0.1c0.9,0.2,1.8,0,2.4-0.6
				c0.1-0.1,0.6-0.5,0.7-0.6c1.2-1.1,2.3-2.4,3.3-3.7c0.6-0.9,1.2-1.9,1.6-3c0.7-1.6,1.1-3.4,1.1-5.2c0-0.1-0.1-1.5-0.1-2.1
				c-0.3-2.4-1.2-3.9-2.2-4.8c-0.3-0.3-0.6-0.5-1-0.6c-0.4-0.2-0.8-0.3-1.3-0.4c-0.9-0.2-1.8-0.2-2.7-0.1l0,0
				c-0.3,0-0.6,0.1-0.9,0.1c-1.4,0.3-2.7,0.8-5,1.5v0.1l1,0l0.1,0l0,0v-0.1c-1.4-0.7-2.8-1.2-4.2-1.5c-0.3-0.1-0.6-0.1-0.9-0.1l0,0
				c-0.9-0.1-1.8-0.1-2.7,0.1c-0.4,0.1-0.9,0.2-1.2,0.4c-0.4,0.2-0.7,0.4-1,0.6c-1.1,0.9-1.9,2.4-2.2,4.8c-0.1,0.6-0.1,2-0.1,2.1
				c0,1.8,0.4,3.5,1.1,5.2c0.4,1.1,1,2.1,1.6,3c0.9,1.4,2,2.6,3.3,3.7l0.8,0.7c0.7,0.5,1.5,0.7,2.3,0.5l0.3-0.1
				c1.2-0.4,2.2-1.4,2.5-2.6c0-0.4-0.3-0.6-0.6-0.9l0,0l-3.1-2.4c-0.4-0.3-0.5-0.8-0.4-1.2l0,0c0.1-0.3,0.4-0.5,0.7-0.4c0,0,0,0,0,0
				l1.9,0.5C17.3,23.9,17.8,23.9,18.4,24z M85.1,27.5l-2-7.3L81,27.5H85.1z M11.3,15.6c-0.2,0-0.4,0.2-0.4,0.5c0,0,0,0,0,0.1
				c0,0.1,0.1,0.3,0.1,0.4c0.1,0.2,0.2,0.3,0.4,0.4c4.9,1.8,4.2,3.5,4.2,3.5c0.6-0.6,1-1.4,1.3-2.2l0,0c0.1-0.5,0.2-0.9,0.3-1.4
				c0-0.3-0.2-0.6-0.5-0.7C14.9,15.7,13.1,15.5,11.3,15.6z M20,18.3L20,18.3c0.3,0.8,0.7,1.5,1.3,2.2c0,0-0.7-1.7,4.2-3.5
				c0.2-0.1,0.3-0.2,0.4-0.4c0-0.1,0.1-0.3,0.1-0.4c0.1-0.2-0.1-0.5-0.3-0.5c0,0,0,0-0.1,0c-1.8-0.2-3.6,0-5.4,0.6
				c-0.3,0.1-0.5,0.4-0.4,0.7C19.8,17.4,19.9,17.9,20,18.3z"/>
		</g>
	</g>
</g>
<g id="Ar_presentation_vid_-_mobile">
</g>
<g id="_x23__x23__x23__x23__x23__x23_Join_us_on___-_short_-__Mobile">
</g>
<g id="Smart_Tracking_copy">
	<g id="Layer_23_copy">
	</g>
</g>
<g id="Smart_Planner_copy">
</g>
<g id="Global_Gps_copy">
</g>
<g id="Smart_alerts_copy">
</g>
<g id="_x23__x23__x23__x23__x23__x23_Join_us_on___-_short_-__Mobile_copy">
</g>
<g id="fam_of_products_copy">
</g>
<g id="RFID_copy">
</g>
<g id="Wireless_charging_copy">
</g>
<g id="Detachable_Powerbank_copy">
</g>
<g id="_x23__x23__x23__x23__x23__x23_Join_us_on___-_short_-__Mobile_copy_2">
</g>
<g id="money_shot_copy">
</g>
<g id="_x23__x23__x23__x23__x23__x23_Join_us_on___-_short_-__Mobile_copy_3">
</g>
<g id="footer_copy">
</g>
<g id="general_guides">
</g>
</svg>
