<?xml version="1.0" encoding="UTF-8" standalone="no"?>
<!DOCTYPE svg PUBLIC "-//W3C//DTD SVG 1.1//EN" "http://www.w3.org/Graphics/SVG/1.1/DTD/svg11.dtd">
<svg width="100%" height="100%" viewBox="0 0 457 65" version="1.1" xmlns="http://www.w3.org/2000/svg" xmlns:xlink="http://www.w3.org/1999/xlink" xml:space="preserve" xmlns:serif="http://www.serif.com/" style="fill-rule:evenodd;clip-rule:evenodd;stroke-linejoin:round;stroke-miterlimit:1.41421;">
    <g transform="matrix(1,0,0,1,-3237,-4425)">
        <path id="camera" d="M3548.89,4452.85C3554.76,4452.85 3559.54,4457.63 3559.54,4463.5C3559.54,4469.38 3554.76,4474.15 3548.89,4474.15L3548.65,4474.15C3542.77,4474.15 3538,4469.38 3538,4463.5C3538,4457.63 3542.77,4452.85 3548.65,4452.85L3548.89,4452.85ZM3492.64,4470.6L3379.48,4470.6C3375.78,4470.6 3372.16,4467.42 3372.16,4463.51C3372.16,4459.59 3375.78,4456.41 3379.48,4456.41L3492.64,4456.41C3496.34,4456.41 3499.96,4459.59 3499.96,4463.51C3499.96,4467.42 3496.34,4470.6 3492.64,4470.6Z"/>
    </g>
</svg>
