<?xml version="1.0" encoding="UTF-8" standalone="no"?>
<!DOCTYPE svg PUBLIC "-//W3C//DTD SVG 1.1//EN" "http://www.w3.org/Graphics/SVG/1.1/DTD/svg11.dtd">
<svg width="100%" height="100%" viewBox="0 0 140 48" version="1.1" xmlns="http://www.w3.org/2000/svg" xmlns:xlink="http://www.w3.org/1999/xlink" xml:space="preserve" xmlns:serif="http://www.serif.com/" style="fill-rule:evenodd;clip-rule:evenodd;stroke-linejoin:round;stroke-miterlimit:1.41421;">
    <g transform="matrix(1,0,0,1,-3440,-628)">
        <g transform="matrix(1,0,0,1,-661,-43)">
            <g transform="matrix(0.609302,0,0,1.38462,1671.95,-27)">
                <path d="M4101.5,506.997L4102.89,507L4103.31,507.002L4104.27,507.002L4105.65,507.004L4107.03,507.008L4108.4,507.015L4109.77,507.023L4111.13,507.033L4112.49,507.046L4113.84,507.06L4115.19,507.077L4116.53,507.095L4117.19,507.106L4117.86,507.113L4119.2,507.131L4120.52,507.151L4121.85,507.172L4123.16,507.196L4124.47,507.222L4125.78,507.249L4127.08,507.279L4128.37,507.31L4129.65,507.343L4130.94,507.379L4132.21,507.416L4132.4,507.421L4133.48,507.451L4134.74,507.487L4136,507.525L4137.25,507.564L4138.49,507.606L4139.72,507.65L4140.95,507.695L4142.17,507.742L4143.39,507.791L4144.6,507.842L4145.8,507.895L4146.99,507.949L4148.17,508.005L4149.35,508.063L4150.52,508.123L4151.68,508.184L4152.83,508.247L4153.98,508.312L4155.11,508.379L4155.68,508.413L4156.24,508.447L4156.81,508.482L4157.36,508.517L4157.92,508.553L4158.48,508.589L4159.03,508.625L4159.58,508.662L4160.13,508.699L4160.67,508.737L4161.22,508.775L4161.76,508.813L4162.3,508.852L4162.84,508.892L4163.37,508.931L4163.9,508.972L4164.43,509.012L4164.96,509.053L4165.41,509.089L4165.49,509.094L4166.01,509.134L4166.53,509.174L4167.05,509.215L4167.57,509.256L4168.09,509.298L4168.6,509.34L4169.11,509.382L4169.62,509.425L4170.12,509.468L4170.63,509.512L4171.13,509.556L4171.62,509.6L4172.12,509.645L4172.61,509.69L4173.1,509.736L4173.59,509.781L4174.08,509.828L4174.56,509.874L4175.04,509.922L4175.52,509.969L4175.99,510.017L4176.47,510.065L4176.94,510.114L4177.41,510.163L4177.87,510.212L4178.34,510.262L4178.8,510.312L4179.25,510.363L4179.71,510.414L4180.16,510.465L4180.61,510.517L4181.06,510.569L4181.5,510.621L4181.94,510.674L4182.38,510.727L4182.82,510.78L4183.25,510.834L4183.68,510.889L4184.11,510.943L4184.53,510.998L4184.95,511.054L4185.37,511.109L4185.79,511.165L4186.2,511.222L4186.61,511.279L4187.02,511.336L4187.43,511.394L4187.83,511.452L4188.23,511.51L4188.63,511.569L4189.02,511.628L4189.41,511.687L4189.8,511.747L4190.18,511.807L4190.56,511.867L4190.94,511.928L4191.32,511.989L4191.69,512.051L4192.06,512.113L4192.43,512.175L4192.79,512.238L4193.15,512.301L4193.51,512.364L4193.87,512.428L4194.22,512.492L4194.57,512.557L4194.91,512.621L4195.26,512.687L4195.6,512.752L4195.93,512.818L4196.26,512.885L4196.6,512.951L4196.92,513.018L4197.25,513.086L4197.57,513.154L4197.89,513.222L4198.2,513.29L4198.51,513.359L4198.82,513.429L4199.12,513.498L4199.15,513.504L4199.43,513.568L4199.73,513.638L4200.02,513.708L4200.32,513.779L4200.61,513.85L4200.89,513.921L4201.18,513.993L4201.45,514.065L4201.73,514.138L4202.01,514.211L4202.28,514.285L4202.54,514.359L4202.81,514.434L4203.07,514.509L4203.32,514.584L4203.58,514.66L4203.83,514.736L4204.08,514.813L4204.32,514.89L4204.56,514.968L4204.8,515.046L4205.03,515.125L4205.26,515.205L4205.49,515.284L4205.71,515.365L4205.93,515.446L4206.15,515.527L4206.36,515.609L4206.57,515.692L4206.77,515.775L4206.98,515.858L4207.18,515.943L4207.37,516.028L4207.56,516.113L4207.75,516.199L4207.94,516.286L4208.11,516.374L4208.29,516.462L4208.47,516.551L4208.63,516.64L4208.8,516.73L4208.96,516.821L4209.12,516.913L4209.27,517.005L4209.42,517.098L4209.57,517.192L4209.71,517.287L4209.85,517.382L4209.98,517.478L4210.11,517.575L4210.23,517.673L4210.35,517.771L4210.47,517.871L4210.57,517.971L4210.68,518.071L4210.78,518.173L4210.88,518.275L4210.97,518.378L4211.06,518.482L4211.14,518.587L4211.21,518.692L4211.28,518.798L4211.35,518.905L4211.41,519.012L4211.47,519.12L4211.52,519.228L4211.56,519.337L4211.6,519.446L4211.63,519.556L4211.66,519.667L4211.68,519.777L4211.69,519.889L4211.7,519.996L4211.71,520.098L4211.71,520.195L4211.71,520.293L4211.71,520.39L4211.71,520.488L4211.7,520.585L4211.69,520.683L4211.68,520.78L4211.66,520.877L4211.65,520.975L4211.63,521.072L4211.6,521.169L4211.58,521.266L4211.55,521.364L4211.52,521.461L4211.48,521.558L4211.45,521.654L4211.41,521.751L4211.37,521.848L4211.32,521.944L4211.28,522.041L4211.23,522.137L4211.18,522.233L4211.12,522.329L4211.07,522.425L4211.01,522.521L4210.94,522.616L4210.88,522.712L4210.81,522.807L4210.74,522.902L4210.66,522.996L4210.59,523.091L4210.51,523.185L4210.43,523.28L4210.34,523.374L4210.26,523.467L4210.17,523.561L4210.08,523.654L4209.98,523.747L4209.88,523.84L4209.78,523.932L4209.68,524.025L4209.57,524.117L4209.47,524.208L4209.36,524.3L4209.24,524.391L4209.13,524.482L4209.01,524.572L4208.89,524.663L4208.76,524.753L4208.64,524.842L4208.51,524.932L4208.37,525.021L4208.24,525.11L4208.1,525.198L4207.96,525.286L4207.82,525.374L4207.68,525.461L4207.53,525.549L4207.38,525.635L4207.23,525.722L4207.07,525.808L4206.91,525.894L4206.75,525.979L4206.59,526.065L4206.43,526.149L4206.26,526.234L4206.09,526.318L4205.91,526.402L4205.74,526.485L4205.56,526.568L4205.38,526.651L4205.2,526.734L4205.01,526.816L4204.82,526.897L4204.63,526.979L4204.44,527.06L4204.24,527.141L4204.04,527.221L4203.94,527.264L4203.84,527.301L4203.64,527.381L4203.44,527.461L4203.23,527.54L4203.02,527.619L4202.81,527.698L4202.59,527.776L4202.37,527.854L4202.15,527.932L4201.93,528.009L4201.7,528.086L4201.48,528.163L4201.25,528.239L4201.01,528.315L4200.78,528.391L4200.54,528.466L4200.3,528.541L4200.06,528.616L4199.81,528.69L4199.56,528.764L4199.31,528.838L4199.06,528.911L4198.8,528.984L4198.54,529.057L4198.28,529.129L4198.02,529.201L4197.75,529.272L4197.48,529.344L4197.21,529.414L4196.94,529.485L4196.66,529.555L4196.38,529.625L4196.1,529.695L4195.82,529.764L4195.53,529.833L4195.24,529.901L4194.95,529.969L4194.66,530.037L4194.36,530.105L4194.06,530.172L4193.76,530.239L4193.45,530.305L4193.14,530.371L4192.83,530.437L4192.52,530.503L4192.2,530.568L4191.89,530.632L4191.57,530.697L4191.24,530.761L4190.92,530.825L4190.59,530.888L4190.26,530.951L4189.92,531.014L4189.59,531.076L4189.25,531.138L4188.9,531.2L4188.56,531.261L4188.21,531.322L4187.86,531.383L4187.51,531.443L4187.15,531.503L4186.79,531.563L4186.43,531.622L4186.07,531.681L4185.7,531.74L4185.33,531.798L4184.96,531.856L4184.59,531.913L4184.21,531.97L4183.83,532.027L4183.44,532.084L4183.06,532.14L4182.67,532.195L4182.28,532.251L4181.88,532.306L4181.49,532.36L4181.09,532.415L4180.68,532.469L4180.28,532.522L4179.87,532.576L4179.46,532.628L4179.05,532.681L4178.63,532.733L4178.21,532.785L4177.79,532.836L4177.36,532.887L4176.93,532.938L4176.5,532.988L4176.07,533.038L4175.63,533.088L4175.19,533.137L4174.75,533.186L4174.31,533.234L4173.86,533.282L4173.41,533.33L4172.95,533.377L4172.5,533.424L4172.04,533.471L4171.57,533.517L4171.11,533.563L4170.64,533.608L4170.17,533.653L4169.69,533.698L4169.22,533.742L4168.74,533.786L4168.25,533.829L4167.77,533.872L4167.28,533.915L4166.79,533.957L4166.29,533.999L4165.79,534.041L4165.29,534.082L4164.79,534.123L4164.28,534.163L4163.77,534.203L4163.26,534.242L4162.74,534.282L4162.23,534.32L4161.7,534.359L4161.18,534.397L4160.65,534.434L4160.12,534.471L4159.59,534.508L4159.05,534.544L4158.51,534.58L4157.97,534.616L4157.42,534.651L4156.87,534.685L4156.32,534.719L4155.76,534.753L4155.21,534.787L4154.64,534.82L4154.08,534.852L4153.51,534.884L4152.94,534.916L4152.37,534.947L4151.79,534.978L4151.21,535.008L4150.63,535.038L4150.04,535.068L4149.45,535.097L4149.39,535.1L4148.86,535.127L4148.27,535.156L4147.67,535.185L4147.07,535.213L4146.46,535.241L4145.85,535.269L4145.24,535.296L4144.63,535.323L4144.01,535.349L4143.39,535.375L4142.76,535.4L4142.14,535.425L4141.51,535.45L4140.87,535.474L4140.24,535.498L4139.6,535.521L4138.95,535.544L4138.31,535.566L4137.66,535.588L4137.01,535.609L4136.35,535.63L4135.69,535.65L4135.03,535.67L4134.36,535.69L4133.69,535.709L4133.02,535.728L4132.35,535.746L4131.66,535.764L4130.3,535.798L4128.92,535.83L4127.52,535.86L4126.8,535.875L4126.13,535.889L4126.11,535.889L4121.51,535.044L4119.59,533.012L4119.59,532.998L4121.5,530.963L4126.09,530.111L4126.11,530.111L4126.76,530.124L4127.48,530.138L4128.83,530.162L4130.16,530.183L4131.49,530.203L4132.14,530.211L4132.8,530.219L4133.44,530.227L4134.09,530.234L4134.74,530.241L4135.38,530.246L4136.01,530.252L4136.65,530.257L4137.28,530.261L4137.91,530.264L4138.53,530.268L4139.15,530.27L4139.77,530.272L4140.39,530.274L4141,530.274L4141.61,530.275L4142.21,530.275L4142.81,530.274L4143.41,530.272L4144.01,530.271L4144.6,530.268L4145.19,530.265L4145.78,530.262L4146.36,530.258L4146.94,530.253L4147.52,530.248L4148.1,530.243L4148.61,530.237L4148.67,530.237L4149.23,530.229L4149.8,530.221L4150.36,530.212L4150.92,530.203L4151.48,530.193L4152.03,530.183L4152.58,530.172L4153.12,530.161L4153.67,530.149L4154.21,530.137L4154.74,530.124L4155.28,530.111L4155.81,530.097L4156.34,530.083L4156.86,530.068L4157.38,530.053L4157.9,530.037L4158.42,530.021L4158.93,530.004L4159.44,529.987L4159.95,529.97L4160.45,529.951L4160.95,529.933L4161.45,529.914L4161.94,529.894L4162.43,529.874L4162.92,529.854L4163.41,529.833L4163.89,529.811L4164.37,529.79L4164.85,529.767L4165.32,529.744L4165.79,529.721L4166.26,529.697L4166.72,529.673L4167.18,529.649L4167.64,529.624L4168.1,529.598L4168.55,529.572L4169,529.546L4169.44,529.519L4169.89,529.492L4170.33,529.464L4170.77,529.436L4171.2,529.407L4171.63,529.378L4172.06,529.349L4172.49,529.319L4172.91,529.289L4173.33,529.258L4173.75,529.227L4174.16,529.196L4174.57,529.164L4174.98,529.131L4175.39,529.099L4175.79,529.065L4176.19,529.032L4176.59,528.998L4176.98,528.963L4177.37,528.929L4177.76,528.894L4178.15,528.858L4178.53,528.822L4178.91,528.786L4179.28,528.749L4179.66,528.712L4180.03,528.674L4180.4,528.636L4180.76,528.598L4181.12,528.56L4181.48,528.521L4181.84,528.481L4182.19,528.442L4182.54,528.401L4182.89,528.361L4183.24,528.32L4183.58,528.279L4183.92,528.237L4184.25,528.196L4184.59,528.153L4184.92,528.111L4185.25,528.068L4185.57,528.025L4185.89,527.981L4186.21,527.937L4186.53,527.893L4186.85,527.848L4187.16,527.803L4187.47,527.758L4187.77,527.712L4188.07,527.666L4188.37,527.62L4188.67,527.574L4188.97,527.527L4189.26,527.48L4189.55,527.432L4189.83,527.384L4190.12,527.336L4190.4,527.288L4190.68,527.239L4190.95,527.19L4191.22,527.141L4191.49,527.092L4191.76,527.042L4192.02,526.992L4192.29,526.941L4192.55,526.891L4192.8,526.84L4193.06,526.789L4193.31,526.737L4193.56,526.686L4193.8,526.634L4194.04,526.581L4194.28,526.529L4194.52,526.476L4194.76,526.423L4194.99,526.37L4195.22,526.317L4195.44,526.263L4195.67,526.209L4195.89,526.155L4196.11,526.101L4196.33,526.046L4196.54,525.991L4196.75,525.936L4196.96,525.881L4197.17,525.826L4197.37,525.77L4197.57,525.714L4197.77,525.658L4197.96,525.602L4198.16,525.546L4198.35,525.489L4198.53,525.432L4198.72,525.375L4198.9,525.318L4199.08,525.261L4199.26,525.203L4199.44,525.146L4199.61,525.088L4199.69,525.061L4199.78,525.03L4199.95,524.971L4200.11,524.912L4200.27,524.854L4200.43,524.795L4200.59,524.735L4200.75,524.676L4200.9,524.617L4201.05,524.557L4201.2,524.498L4201.34,524.438L4201.48,524.378L4201.63,524.318L4201.76,524.258L4201.9,524.197L4202.03,524.137L4202.16,524.076L4202.29,524.016L4202.42,523.955L4202.54,523.894L4202.67,523.833L4202.79,523.772L4202.9,523.711L4203.02,523.65L4203.13,523.588L4203.24,523.527L4203.35,523.465L4203.46,523.404L4203.56,523.342L4203.67,523.28L4203.77,523.218L4203.86,523.156L4203.96,523.093L4204.05,523.031L4204.15,522.969L4204.23,522.906L4204.32,522.843L4204.41,522.781L4204.49,522.718L4204.57,522.655L4204.65,522.592L4204.73,522.528L4204.81,522.465L4204.88,522.401L4204.95,522.338L4205.02,522.274L4205.09,522.21L4205.16,522.146L4205.22,522.082L4205.28,522.018L4205.34,521.953L4205.4,521.888L4205.46,521.824L4205.51,521.759L4205.56,521.694L4205.61,521.628L4205.66,521.563L4205.71,521.497L4205.76,521.431L4205.8,521.365L4205.84,521.299L4205.88,521.233L4205.92,521.166L4205.96,521.099L4205.99,521.032L4206.02,520.965L4206.06,520.898L4206.09,520.83L4206.11,520.762L4206.14,520.694L4206.16,520.626L4206.18,520.557L4206.2,520.488L4206.22,520.419L4206.24,520.35L4206.25,520.281L4206.27,520.211L4206.28,520.141L4206.29,520.071L4206.3,520.004L4206.3,519.943L4206.3,519.887L4206.3,519.83L4206.3,519.773L4206.29,519.716L4206.28,519.659L4206.27,519.601L4206.25,519.543L4206.23,519.485L4206.21,519.427L4206.19,519.368L4206.16,519.309L4206.13,519.249L4206.09,519.189L4206.05,519.129L4206.01,519.068L4205.97,519.007L4205.92,518.945L4205.86,518.883L4205.81,518.82L4205.75,518.757L4205.68,518.693L4205.61,518.629L4205.54,518.564L4205.47,518.499L4205.39,518.434L4205.31,518.368L4205.22,518.302L4205.13,518.235L4205.03,518.168L4204.93,518.1L4204.83,518.033L4204.72,517.964L4204.61,517.896L4204.49,517.827L4204.38,517.758L4204.25,517.688L4204.12,517.618L4203.99,517.548L4203.86,517.478L4203.72,517.407L4203.57,517.336L4203.42,517.265L4203.27,517.194L4203.11,517.123L4202.95,517.051L4202.79,516.979L4202.62,516.907L4202.44,516.835L4202.27,516.763L4202.08,516.691L4201.9,516.618L4201.71,516.546L4201.52,516.473L4201.32,516.401L4201.12,516.328L4200.91,516.255L4200.7,516.182L4200.49,516.11L4200.27,516.037L4200.05,515.964L4199.82,515.891L4199.59,515.818L4199.36,515.745L4199.12,515.673L4198.88,515.6L4198.64,515.527L4198.39,515.454L4198.14,515.382L4197.88,515.309L4197.62,515.237L4197.36,515.164L4197.11,515.098L4197.09,515.092L4196.82,515.02L4196.54,514.949L4196.27,514.877L4195.98,514.806L4195.7,514.735L4195.41,514.664L4195.11,514.593L4194.82,514.522L4194.52,514.451L4194.21,514.381L4193.9,514.31L4193.59,514.24L4193.28,514.17L4192.96,514.1L4192.64,514.03L4192.31,513.961L4191.98,513.891L4191.65,513.822L4191.32,513.753L4190.98,513.684L4190.64,513.615L4190.29,513.546L4189.94,513.478L4189.59,513.41L4189.23,513.342L4188.88,513.274L4188.52,513.206L4188.15,513.139L4187.78,513.072L4187.41,513.005L4187.04,512.938L4186.66,512.872L4186.28,512.805L4185.89,512.739L4185.51,512.673L4185.11,512.608L4184.72,512.542L4184.32,512.477L4183.93,512.412L4183.52,512.347L4183.12,512.283L4182.71,512.218L4182.3,512.154L4181.88,512.091L4181.46,512.027L4181.04,511.964L4180.62,511.901L4180.19,511.838L4179.76,511.776L4179.33,511.714L4178.9,511.652L4178.46,511.59L4178.02,511.529L4177.57,511.467L4177.13,511.407L4176.68,511.346L4176.22,511.286L4175.77,511.226L4175.31,511.166L4174.85,511.107L4174.39,511.047L4173.92,510.989L4173.45,510.93L4172.98,510.872L4172.51,510.814L4172.03,510.756L4171.55,510.699L4171.07,510.641L4170.58,510.585L4170.1,510.528L4169.61,510.472L4169.11,510.416L4168.62,510.361L4168.12,510.305L4167.62,510.25L4167.12,510.196L4166.61,510.142L4166.1,510.088L4165.59,510.034L4165.08,509.981L4165.01,509.973L4164.56,509.929L4164.04,509.878L4163.52,509.828L4163,509.778L4162.47,509.728L4161.94,509.679L4161.41,509.629L4160.88,509.581L4160.35,509.532L4159.81,509.484L4159.27,509.437L4158.73,509.389L4158.18,509.342L4157.64,509.296L4157.09,509.249L4156.53,509.203L4155.98,509.158L4155.43,509.113L4154.87,509.068L4153.74,508.98L4152.61,508.893L4151.47,508.807L4150.33,508.723L4149.17,508.641L4148.01,508.56L4146.83,508.481L4145.65,508.404L4144.46,508.328L4143.27,508.253L4142.06,508.181L4140.85,508.11L4139.63,508.04L4138.4,507.973L4137.17,507.907L4135.93,507.843L4134.68,507.78L4133.43,507.719L4132.35,507.669L4132.16,507.661L4130.9,507.608L4129.62,507.558L4128.34,507.509L4127.05,507.462L4125.75,507.417L4124.45,507.374L4123.15,507.333L4121.83,507.293L4120.51,507.256L4119.19,507.22L4117.86,507.186L4117.19,507.17L4116.52,507.157L4115.18,507.132L4113.84,507.109L4112.48,507.089L4111.13,507.07L4109.77,507.053L4108.4,507.038L4107.03,507.026L4105.65,507.015L4104.27,507.007L4103.31,507.002L4102.89,507.002L4101.5,507.003L4100.11,507.006L4098.73,507.012L4097.35,507.019L4095.97,507.029L4094.6,507.041L4093.24,507.054L4091.87,507.07L4090.52,507.088L4089.93,507.097L4089.16,507.11L4087.82,507.136L4086.48,507.164L4085.14,507.193L4083.81,507.225L4082.49,507.259L4081.17,507.294L4079.86,507.332L4078.55,507.371L4077.25,507.413L4076.13,507.45L4075.95,507.456L4074.66,507.506L4073.38,507.557L4072.11,507.61L4070.84,507.665L4069.57,507.722L4068.32,507.781L4067.07,507.841L4065.83,507.903L4064.59,507.967L4063.37,508.032L4062.15,508.1L4060.93,508.168L4059.73,508.239L4058.53,508.311L4057.34,508.385L4056.16,508.46L4054.99,508.537L4053.82,508.616L4052.66,508.696L4051.52,508.778L4050.38,508.862L4049.24,508.946L4048.12,509.033L4047.81,509.058L4047.56,509.078L4047.01,509.124L4046.45,509.17L4045.9,509.217L4045.35,509.265L4044.81,509.312L4044.26,509.36L4043.72,509.409L4043.18,509.458L4042.64,509.507L4042.11,509.556L4041.58,509.606L4041.05,509.656L4040.52,509.707L4039.99,509.758L4039.47,509.809L4038.95,509.86L4038.43,509.912L4037.91,509.964L4037.4,510.017L4036.89,510.07L4036.38,510.123L4035.88,510.176L4035.37,510.23L4034.87,510.284L4034.37,510.339L4033.88,510.394L4033.38,510.449L4032.89,510.504L4032.41,510.56L4031.92,510.616L4031.44,510.672L4030.96,510.729L4030.48,510.786L4030,510.843L4029.53,510.901L4029.06,510.959L4028.6,511.017L4028.13,511.076L4027.67,511.134L4027.21,511.193L4026.76,511.253L4026.3,511.312L4025.85,511.372L4025.41,511.432L4024.96,511.493L4024.52,511.554L4024.08,511.615L4023.64,511.676L4023.21,511.738L4022.78,511.8L4022.35,511.862L4021.93,511.924L4021.51,511.987L4021.09,512.05L4020.67,512.113L4020.26,512.176L4019.85,512.24L4019.76,512.254L4019.45,512.305L4019.04,512.37L4018.64,512.435L4018.25,512.501L4017.85,512.567L4017.46,512.634L4017.08,512.7L4016.69,512.767L4016.31,512.834L4015.93,512.901L4015.56,512.968L4015.19,513.036L4014.82,513.103L4014.45,513.171L4014.09,513.24L4013.73,513.308L4013.38,513.376L4013.03,513.445L4012.68,513.514L4012.33,513.583L4011.99,513.653L4011.65,513.722L4011.32,513.792L4010.99,513.862L4010.66,513.932L4010.33,514.002L4010.01,514.072L4009.69,514.142L4009.38,514.213L4009.07,514.284L4008.76,514.355L4008.46,514.426L4008.16,514.497L4007.86,514.568L4007.57,514.64L4007.28,514.711L4006.99,514.783L4006.71,514.855L4006.43,514.927L4006.15,514.999L4005.88,515.071L4005.61,515.143L4005.35,515.215L4005.09,515.287L4004.83,515.36L4004.58,515.432L4004.33,515.505L4004.09,515.577L4003.84,515.65L4003.61,515.723L4003.37,515.795L4003.14,515.868L4002.92,515.941L4002.69,516.014L4002.47,516.086L4002.26,516.159L4002.05,516.232L4001.84,516.304L4001.64,516.377L4001.44,516.45L4001.25,516.522L4001.06,516.595L4000.87,516.667L4000.69,516.739L4000.51,516.812L4000.34,516.884L4000.17,516.956L4000,517.027L3999.84,517.099L3999.68,517.171L3999.53,517.242L3999.38,517.313L3999.23,517.384L3999.09,517.455L3998.95,517.525L3998.82,517.596L3998.69,517.666L3998.57,517.735L3998.44,517.805L3998.33,517.874L3998.22,517.943L3998.11,518.011L3998,518.08L3997.9,518.147L3997.81,518.215L3997.71,518.282L3997.63,518.349L3997.54,518.415L3997.46,518.481L3997.38,518.546L3997.31,518.611L3997.3,518.626L3997.24,518.676L3997.18,518.741L3997.12,518.805L3997.06,518.868L3997.01,518.931L3996.96,518.994L3996.92,519.056L3996.87,519.118L3996.84,519.179L3996.8,519.24L3996.77,519.3L3996.74,519.36L3996.72,519.42L3996.7,519.479L3996.68,519.538L3996.66,519.596L3996.65,519.654L3996.64,519.712L3996.63,519.77L3996.63,519.828L3996.63,519.885L3996.64,519.943L3996.64,520.004L3996.65,520.073L3996.66,520.145L3996.67,520.217L3996.68,520.289L3996.7,520.361L3996.72,520.432L3996.73,520.503L3996.75,520.574L3996.77,520.645L3996.8,520.715L3996.82,520.785L3996.85,520.855L3996.88,520.924L3996.91,520.994L3996.93,521.063L3996.97,521.131L3997,521.2L3997.04,521.268L3997.08,521.336L3997.11,521.404L3997.16,521.472L3997.2,521.539L3997.24,521.606L3997.29,521.673L3997.33,521.74L3997.38,521.807L3997.43,521.873L3997.49,521.939L3997.54,522.005L3997.59,522.07L3997.65,522.136L3997.71,522.201L3997.77,522.266L3997.83,522.331L3997.9,522.395L3997.96,522.46L3998.03,522.524L3998.1,522.588L3998.17,522.652L3998.24,522.716L3998.32,522.779L3998.39,522.842L3998.47,522.905L3998.55,522.968L3998.63,523.031L3998.72,523.094L3998.8,523.156L3998.89,523.219L3998.98,523.281L3999.07,523.343L3999.16,523.405L3999.26,523.466L3999.35,523.528L3999.45,523.589L3999.55,523.651L3999.65,523.712L3999.76,523.773L3999.87,523.833L3999.97,523.894L4000.08,523.954L4000.2,524.015L4000.31,524.075L4000.43,524.135L4000.55,524.195L4000.67,524.255L4000.79,524.314L4000.91,524.374L4001.04,524.433L4001.17,524.492L4001.3,524.552L4001.44,524.61L4001.57,524.669L4001.71,524.728L4001.85,524.786L4001.99,524.844L4002.14,524.903L4002.28,524.961L4002.43,525.018L4002.58,525.076L4002.74,525.134L4002.89,525.191L4003.05,525.248L4003.21,525.305L4003.38,525.362L4003.54,525.419L4003.71,525.475L4003.88,525.531L4004.05,525.588L4004.23,525.643L4004.41,525.699L4004.59,525.755L4004.77,525.81L4004.95,525.865L4005.14,525.92L4005.33,525.975L4005.52,526.03L4005.72,526.084L4005.91,526.138L4006.11,526.192L4006.32,526.246L4006.52,526.3L4006.73,526.353L4006.94,526.406L4007.15,526.459L4007.37,526.512L4007.58,526.564L4007.81,526.616L4008.03,526.668L4008.25,526.72L4008.48,526.771L4008.71,526.822L4008.95,526.873L4009.18,526.924L4009.42,526.974L4009.66,527.025L4009.91,527.075L4010.15,527.124L4010.4,527.174L4010.66,527.223L4010.91,527.272L4011.17,527.32L4011.43,527.368L4011.69,527.416L4011.96,527.464L4012.23,527.511L4012.5,527.558L4012.77,527.605L4013.05,527.652L4013.33,527.698L4013.61,527.744L4013.9,527.789L4014.18,527.835L4014.47,527.88L4014.77,527.924L4015.07,527.969L4015.36,528.013L4015.67,528.056L4015.97,528.1L4016.28,528.143L4016.59,528.185L4016.9,528.228L4017.22,528.27L4017.54,528.311L4017.86,528.353L4018.19,528.394L4018.51,528.434L4018.85,528.474L4019.18,528.514L4019.52,528.554L4019.86,528.593L4020.2,528.632L4020.54,528.67L4020.89,528.708L4021.24,528.746L4021.6,528.783L4021.95,528.82L4022.32,528.857L4022.68,528.893L4023.04,528.929L4023.41,528.964L4023.79,528.999L4024.16,529.034L4024.54,529.068L4024.92,529.102L4025.3,529.135L4025.69,529.168L4026.08,529.201L4026.47,529.233L4026.87,529.265L4027.27,529.296L4027.67,529.327L4028.08,529.357L4028.48,529.387L4028.89,529.417L4029.31,529.446L4029.73,529.475L4030.15,529.504L4030.57,529.532L4031,529.559L4031.43,529.586L4031.82,529.61L4031.86,529.613L4032.3,529.638L4032.74,529.663L4033.18,529.687L4033.63,529.711L4034.07,529.734L4034.53,529.757L4034.98,529.78L4035.44,529.801L4035.9,529.823L4036.37,529.844L4036.83,529.865L4037.3,529.885L4037.78,529.904L4038.26,529.923L4038.74,529.942L4039.22,529.96L4039.71,529.978L4040.2,529.995L4040.69,530.012L4041.18,530.028L4041.68,530.044L4042.19,530.059L4042.69,530.074L4043.2,530.088L4043.72,530.102L4044.23,530.115L4044.75,530.128L4045.27,530.14L4045.8,530.152L4046.33,530.163L4046.86,530.174L4047.39,530.184L4047.93,530.194L4048.47,530.203L4049.02,530.212L4049.57,530.22L4050.12,530.228L4050.67,530.235L4051.23,530.241L4051.79,530.247L4052.36,530.253L4052.93,530.258L4053.5,530.262L4054.08,530.266L4054.65,530.27L4055.24,530.272L4055.82,530.275L4056.41,530.276L4057,530.278L4057.6,530.278L4058.2,530.278L4058.8,530.278L4059.4,530.277L4060.01,530.275L4060.62,530.273L4061.24,530.271L4061.86,530.267L4062.48,530.264L4063.11,530.259L4063.74,530.254L4064.37,530.249L4065.01,530.243L4065.65,530.236L4066.29,530.229L4066.94,530.221L4067.59,530.213L4068.24,530.204L4068.9,530.195L4069.56,530.184L4070.89,530.162L4072.24,530.138L4072.95,530.124L4073.61,530.111L4073.63,530.111L4078.24,530.963L4080.16,532.998L4080.16,533.012L4078.23,535.044L4073.6,535.889L4073.59,535.889L4072.92,535.875L4072.19,535.86L4070.8,535.829L4069.43,535.797L4068.74,535.78L4068.06,535.762L4067.38,535.744L4066.71,535.726L4066.04,535.707L4065.38,535.688L4064.71,535.668L4064.06,535.648L4063.4,535.627L4062.75,535.606L4062.1,535.585L4061.45,535.563L4060.81,535.54L4060.18,535.518L4059.54,535.494L4058.91,535.471L4058.28,535.446L4057.66,535.422L4057.04,535.397L4056.42,535.371L4055.81,535.345L4055.2,535.319L4054.59,535.292L4053.99,535.265L4053.39,535.237L4052.79,535.209L4052.2,535.181L4051.61,535.152L4051.02,535.122L4050.44,535.092L4049.86,535.062L4049.28,535.032L4048.71,535.001L4048.14,534.969L4047.57,534.937L4047.01,534.905L4046.45,534.872L4045.89,534.839L4045.34,534.805L4044.78,534.771L4044.24,534.737L4043.69,534.702L4043.15,534.667L4042.62,534.631L4042.08,534.595L4041.55,534.559L4041.02,534.522L4040.5,534.485L4039.98,534.447L4039.46,534.409L4038.95,534.371L4038.43,534.332L4037.93,534.293L4037.42,534.253L4036.92,534.213L4036.42,534.173L4035.92,534.132L4035.43,534.091L4034.94,534.049L4034.45,534.007L4033.97,533.965L4033.49,533.922L4033.01,533.879L4032.54,533.836L4032.07,533.792L4031.6,533.747L4031.14,533.703L4030.68,533.658L4030.22,533.612L4030.17,533.608L4029.76,533.567L4029.31,533.522L4028.86,533.477L4028.41,533.431L4027.97,533.385L4027.53,533.338L4027.09,533.291L4026.65,533.244L4026.22,533.196L4025.79,533.148L4025.37,533.099L4024.94,533.05L4024.52,533.001L4024.11,532.951L4023.69,532.901L4023.28,532.851L4022.87,532.8L4022.47,532.749L4022.06,532.697L4021.66,532.645L4021.27,532.593L4020.87,532.54L4020.48,532.487L4020.1,532.434L4019.71,532.38L4019.33,532.326L4018.95,532.272L4018.57,532.217L4018.2,532.162L4017.83,532.106L4017.46,532.05L4017.09,531.994L4016.73,531.937L4016.37,531.88L4016.01,531.823L4015.66,531.765L4015.31,531.707L4014.96,531.649L4014.61,531.59L4014.27,531.531L4013.93,531.471L4013.59,531.411L4013.26,531.351L4012.92,531.291L4012.59,531.23L4012.27,531.168L4011.94,531.107L4011.62,531.045L4011.3,530.982L4010.99,530.92L4010.67,530.857L4010.36,530.793L4010.05,530.729L4009.75,530.665L4009.44,530.601L4009.14,530.536L4008.85,530.471L4008.55,530.405L4008.26,530.339L4007.97,530.273L4007.68,530.206L4007.4,530.14L4007.12,530.072L4006.84,530.005L4006.56,529.937L4006.29,529.868L4006.01,529.8L4005.74,529.73L4005.48,529.661L4005.22,529.591L4004.95,529.521L4004.7,529.451L4004.44,529.38L4004.18,529.309L4003.93,529.237L4003.68,529.165L4003.44,529.093L4003.2,529.021L4002.95,528.948L4002.72,528.874L4002.48,528.801L4002.25,528.727L4002.02,528.653L4001.79,528.578L4001.56,528.503L4001.34,528.428L4001.12,528.352L4000.9,528.276L4000.68,528.199L4000.47,528.123L4000.26,528.045L4000.05,527.968L3999.84,527.89L3999.64,527.812L3999.44,527.734L3999.24,527.655L3999.05,527.575L3998.85,527.496L3998.66,527.416L3998.47,527.336L3998.29,527.255L3998.1,527.174L3997.92,527.093L3997.74,527.012L3997.57,526.93L3997.39,526.847L3997.22,526.765L3997.05,526.682L3996.88,526.599L3996.72,526.515L3996.56,526.431L3996.4,526.347L3996.24,526.263L3996.09,526.178L3995.94,526.093L3995.79,526.007L3995.64,525.921L3995.5,525.835L3995.36,525.749L3995.22,525.662L3995.08,525.575L3994.95,525.488L3994.82,525.4L3994.69,525.312L3994.56,525.224L3994.43,525.136L3994.31,525.047L3994.19,524.958L3994.08,524.869L3993.96,524.779L3993.85,524.69L3993.74,524.6L3993.64,524.509L3993.53,524.419L3993.43,524.328L3993.33,524.237L3993.23,524.146L3993.14,524.055L3993.05,523.963L3992.96,523.871L3992.87,523.779L3992.79,523.687L3992.7,523.594L3992.62,523.502L3992.55,523.409L3992.47,523.316L3992.4,523.223L3992.33,523.13L3992.26,523.036L3992.2,522.943L3992.14,522.849L3992.08,522.755L3992.02,522.661L3991.96,522.567L3991.91,522.473L3991.86,522.378L3991.81,522.284L3991.77,522.189L3991.72,522.095L3991.68,522L3991.65,521.905L3991.61,521.81L3991.58,521.715L3991.55,521.62L3991.52,521.525L3991.49,521.43L3991.47,521.335L3991.44,521.24L3991.42,521.144L3991.41,521.049L3991.39,520.954L3991.38,520.859L3991.37,520.763L3991.36,520.668L3991.35,520.572L3991.35,520.477L3991.35,520.382L3991.35,520.286L3991.35,520.191L3991.35,520.095L3991.36,519.996L3991.37,519.889L3991.39,519.779L3991.41,519.669L3991.44,519.559L3991.47,519.45L3991.51,519.341L3991.55,519.233L3991.6,519.125L3991.66,519.018L3991.72,518.912L3991.79,518.806L3991.86,518.701L3991.93,518.596L3992.02,518.493L3992.1,518.39L3992.2,518.287L3992.29,518.186L3992.39,518.085L3992.5,517.985L3992.61,517.886L3992.72,517.787L3992.85,517.69L3992.94,517.615L3992.97,517.593L3993.1,517.496L3993.23,517.401L3993.36,517.306L3993.5,517.211L3993.65,517.118L3993.8,517.025L3993.95,516.933L3994.11,516.842L3994.26,516.751L3994.43,516.662L3994.6,516.572L3994.77,516.484L3994.95,516.396L3995.12,516.309L3995.31,516.222L3995.49,516.136L3995.68,516.051L3995.88,515.966L3996.08,515.882L3996.28,515.798L3996.48,515.715L3996.69,515.632L3996.9,515.551L3997.12,515.469L3997.34,515.388L3997.56,515.308L3997.79,515.228L3998.01,515.149L3998.25,515.07L3998.48,514.992L3998.72,514.914L3998.97,514.837L3999.21,514.76L3999.46,514.683L3999.71,514.607L3999.97,514.532L4000.23,514.457L4000.49,514.382L4000.76,514.308L4001.03,514.234L4001.3,514.161L4001.58,514.088L4001.86,514.016L4002.14,513.944L4002.43,513.872L4002.71,513.801L4003.01,513.73L4003.3,513.659L4003.6,513.589L4003.9,513.52L4004.21,513.45L4004.52,513.381L4004.83,513.313L4005.14,513.245L4005.46,513.177L4005.78,513.11L4006.11,513.043L4006.43,512.976L4006.76,512.91L4007.1,512.844L4007.43,512.779L4007.77,512.714L4008.12,512.649L4008.46,512.585L4008.81,512.521L4009.16,512.457L4009.52,512.394L4009.88,512.331L4010.24,512.268L4010.6,512.206L4010.97,512.145L4011.34,512.083L4011.71,512.022L4012.09,511.962L4012.47,511.901L4012.85,511.841L4013.23,511.782L4013.62,511.723L4014.01,511.664L4014.41,511.605L4014.8,511.547L4015.2,511.489L4015.61,511.432L4016.01,511.375L4016.42,511.318L4016.83,511.262L4017.24,511.206L4017.66,511.151L4018.08,511.096L4018.5,511.041L4018.83,510.998L4018.93,510.986L4019.35,510.931L4019.78,510.876L4020.21,510.822L4020.65,510.768L4021.09,510.714L4021.53,510.66L4021.97,510.607L4022.42,510.555L4022.87,510.502L4023.32,510.45L4023.77,510.399L4024.23,510.348L4024.69,510.297L4025.15,510.247L4025.61,510.196L4026.08,510.147L4026.55,510.098L4027.02,510.049L4027.5,510L4027.98,509.952L4028.46,509.904L4028.94,509.857L4029.42,509.81L4029.91,509.763L4030.4,509.717L4030.89,509.671L4031.39,509.625L4031.89,509.58L4032.39,509.536L4032.89,509.491L4033.39,509.448L4033.9,509.404L4034.41,509.361L4034.92,509.318L4035.44,509.276L4035.95,509.234L4036.47,509.192L4037,509.151L4037.52,509.111L4038.05,509.07L4038.57,509.03L4039.11,508.991L4039.64,508.952L4040.17,508.913L4040.71,508.875L4041.25,508.837L4041.79,508.799L4042.34,508.762L4042.88,508.726L4043.43,508.69L4043.98,508.654L4044.54,508.618L4045.09,508.583L4045.65,508.549L4046.21,508.515L4046.77,508.481L4047.33,508.448L4047.58,508.434L4047.9,508.414L4049.03,508.345L4050.18,508.278L4051.33,508.213L4052.49,508.15L4053.66,508.088L4054.84,508.028L4056.02,507.97L4057.21,507.913L4058.41,507.859L4059.62,507.806L4060.83,507.754L4062.05,507.705L4063.28,507.658L4064.51,507.612L4065.76,507.568L4067,507.526L4068.26,507.486L4069.52,507.447L4070.79,507.411L4072.06,507.377L4073.35,507.344L4074.63,507.313L4075.93,507.285L4076.1,507.281L4077.22,507.254L4078.53,507.224L4079.84,507.197L4081.15,507.171L4082.47,507.148L4083.8,507.126L4085.13,507.106L4086.47,507.089L4087.81,507.073L4089.16,507.06L4089.93,507.053L4090.51,507.046L4091.87,507.033L4093.23,507.021L4094.6,507.012L4095.97,507.005L4097.35,507L4098.73,506.997L4100.11,506.996L4101.5,506.997Z"/>
            </g>
            <g transform="matrix(9.79717e-17,1.6,-1.6,9.79717e-17,5287,-5961)">
                <path d="M4170,700L4175,710L4165,710L4170,700Z"/>
            </g>
            <g transform="matrix(9.79717e-17,-1.6,1.6,9.79717e-17,3054,7383)">
                <path d="M4170,700L4175,710L4165,710L4170,700Z"/>
            </g>
        </g>
    </g>
</svg>
